<?xml version="1.0" encoding="utf-8"?>
<!-- Generator: Adobe Illustrator 21.0.0, SVG Export Plug-In . SVG Version: 6.00 Build 0)  -->
<svg version="1.1" id="Calque_1" xmlns="http://www.w3.org/2000/svg" xmlns:xlink="http://www.w3.org/1999/xlink" x="0px" y="0px"
	 viewBox="0 0 376 119" style="enable-background:new 0 0 376 119;" xml:space="preserve">
<style type="text/css">
	.st0{fill:#715746;}
	.st1{fill:#F7EDE0;}
	.st2{fill-rule:evenodd;clip-rule:evenodd;fill:#CBA57A;}
	.st3{fill:#444341;}
	.st4{opacity:0;fill:#CF4C4E;}
	.st5{fill:#EAD8CC;}
	.st6{fill:#ECDCC6;}
	.st7{fill:none;stroke:#1D1D1B;stroke-miterlimit:10;}
	.st8{fill:#DFC7B1;}
	.st9{fill-rule:evenodd;clip-rule:evenodd;}
	.st10{fill:#CF4C4E;}
	.st11{fill:#E35D57;}
	.st12{fill:#D5CDC4;}
	.st13{fill:#356E9C;}
	.st14{fill:#BA9570;}
	.st15{fill-rule:evenodd;clip-rule:evenodd;fill:#8F4D83;}
	.st16{fill-rule:evenodd;clip-rule:evenodd;fill:#3B75B9;}
	.st17{fill-rule:evenodd;clip-rule:evenodd;fill:#B94770;}
	.st18{fill:#DBCBC1;}
	.st19{fill:none;stroke:#3A2D23;stroke-width:0.75;stroke-miterlimit:10;}
	.st20{fill:#FFFFFF;}
</style>
<g>
	<path class="st0" d="M98.1,21.8L98.1,21.8c0,0-0.1,0.1-0.1,0.1v0l0-0.1v-0.1c0,0,0-0.2-0.1-0.3c-0.1,0-0.1,0.1-0.2,0.1
		c-0.5-1.7-2.6-7.4-7.2-12.3c3.2,3.3,5.1,6.6,6.2,9C97.6,20.1,98,21.5,98.1,21.8z"/>
	<path class="st1" d="M97.7,21.4L97.7,21.4c-0.8,0.5-1.6,1.1-2.4,1.6c0,0,0,0,0,0c-0.8,0.5-1.7,1.1-2.5,1.6
		c-0.5,0.4-1.1,0.7-1.6,1.1c-0.5,0.3-1.1,0.7-1.6,1c-0.2,0.1-0.4,0.3-0.7,0.4c-0.2,0.1-0.4,0.3-0.6,0.4c-0.8,0.5-1.5,1-2.3,1.5
		c-0.3,0.2-0.7,0.4-1,0.6c-0.2,0.1-0.4,0.2-0.5,0.3h0v0h0c-0.3,0.2-0.5,0.4-0.8,0.5c0,0,0,0,0,0c0,0,0,0,0,0c0,0,0,0,0,0
		c-0.5,0.3-0.9,0.6-1.4,0.9c-0.9,0.6-1.9,1.2-2.8,1.8c-0.4,0.3-0.9,0.6-1.3,0.9h0c-0.1,0.1-0.2,0.2-0.4,0.3c-0.1,0-0.2,0.1-0.2,0.2
		c-0.6,0.4-1.2,0.8-1.8,1.2c-0.2,0.1-0.4,0.3-0.6,0.4l-0.9,0.6l-0.7,0.4c0,0,0,0,0,0c0,0,0,0-0.1,0c-0.1,0-0.1,0.1-0.2,0.1
		c-0.1,0-0.1,0.1-0.2,0.1c-0.1,0-0.1,0.1-0.2,0.1c-0.1,0.1-0.2,0.1-0.3,0.2c0.2-1.6,0.2-3,0.1-4.5c0-0.1,0-0.2,0-0.3
		c-0.2-3.4-1.1-6.5-2.3-9.1c-0.1-0.2-0.2-0.4-0.3-0.6c0-0.1-0.1-0.1-0.1-0.2c-0.7-1.5-1.5-2.8-2.3-4c-2.5-3.6-5.5-6.3-7.7-8
		c-0.1,0-0.1-0.1-0.2-0.1c-0.9-0.7-1.8-1.3-2.3-1.6l26.3-5.7c0.8,0.5,1.5,0.9,2.2,1.4c0,0,0.1,0,0.1,0.1c1.6,1.1,3,2.4,4.3,3.6
		c0.1,0.1,0.1,0.1,0.2,0.2C95.2,14,97.2,19.7,97.7,21.4z"/>
	<path class="st1" d="M74.4,48l-5.1,0.9c0.7-1.5,1.3-3,1.8-4.4l0,0c0.9,1,1.9,2.2,3.1,3.4h0c0,0,0,0,0,0L74.4,48z"/>
	<path class="st1" d="M98.9,34.8c0,0,0,0.1,0,0.1c0,0.1,0,0.2,0,0.4c0,0,0,0.1,0,0.1c0,0,0,0.1,0,0.1c-0.1,0.6-0.2,1.2-0.3,1.7
		c0,0.1,0,0.2-0.1,0.3v0c0,0,0,0,0,0c0,0.2-0.1,0.5-0.1,0.7v0c0,0,0,0,0,0c0,0,0,0,0,0c0,0.2-0.1,0.3-0.1,0.5
		c-0.6,2.4-1.2,4.2-1.6,5.3c-0.1,0.2-0.1,0.3-0.2,0.5c-0.1,0.3-0.2,0.5-0.2,0.5l-1.1,0.2l-4.7,0.8c0,0,0,0,0,0c0,0,0,0,0,0L89.7,46
		l-9.2,1.5l-2.3,0.4L77.4,48L76,48.3h0l0,0h0c0,0,0-0.1-0.1-0.1h0c-0.1-0.1-0.2-0.2-0.3-0.3c0,0,0,0,0,0c0,0,0,0-0.1-0.1h0
		c0,0-0.1-0.1-0.1-0.1c-0.2-0.2-0.4-0.4-0.6-0.6c0-0.1-0.1-0.1-0.1-0.2c0,0-0.1-0.1-0.1-0.2c-0.1-0.1-0.2-0.3-0.4-0.4
		c-0.4-0.4-0.7-0.8-1-1.1c0-0.1-0.1-0.1-0.2-0.2c-0.1-0.1-0.2-0.2-0.3-0.3l0,0c0,0,0,0,0,0c0,0,0,0,0,0v0c-0.1-0.1-0.2-0.3-0.3-0.4
		c-0.1-0.1-0.2-0.2-0.3-0.3c0,0-0.1-0.1-0.1-0.1c0,0-0.1-0.1-0.1-0.1c0,0,0,0-0.1-0.1h0c0,0,0,0-0.1-0.1c0,0,0,0-0.1-0.1v0l0,0
		c-0.1-0.1-0.1-0.2-0.2-0.2c0,0-0.1-0.1-0.1-0.1v0c0,0,0,0,0,0h0c0,0,0,0,0,0c0.1-0.3,0.2-0.7,0.3-1c0.1-0.4,0.2-0.7,0.2-1
		c0.1-0.3,0.2-0.7,0.2-1c0,0,0,0,0,0c0.1-0.3,0.1-0.7,0.2-1v0h0v0l0,0h0l0,0c0,0,0,0,0,0c0,0,0.1-0.1,0.2-0.1l0.1-0.1l0,0l0.6-0.4v0
		h0c0,0,0,0,0,0h0c0,0,0,0,0,0c0,0,0,0,0,0c0,0,0,0,0,0c0,0,0,0,0,0c0.2-0.2,0.5-0.3,0.8-0.5c0.1-0.1,0.2-0.1,0.3-0.2
		c0.3-0.2,0.7-0.5,1.1-0.7c0.2-0.1,0.4-0.2,0.6-0.4c0.2-0.1,0.4-0.2,0.5-0.4c0.2-0.1,0.3-0.2,0.5-0.3c0,0,0,0,0,0
		c0.1,0,0.1-0.1,0.2-0.1c0.3-0.2,0.5-0.3,0.8-0.5c0,0,0,0,0,0h0v0c0,0,0.1-0.1,0.1-0.1c0.1-0.1,0.2-0.2,0.4-0.2
		c0.2-0.1,0.3-0.2,0.5-0.3c0.2-0.1,0.3-0.2,0.5-0.3c0,0,0,0,0,0c0,0,0,0,0,0c0,0,0,0,0.1,0c0,0,0,0,0,0c0,0,0,0,0,0c0,0,0,0,0,0
		c0,0,0.1,0,0.1-0.1c0,0,0,0,0,0c0,0,0.1,0,0.1-0.1c0.1,0,0.1-0.1,0.2-0.1c0,0,0,0,0,0c0.1-0.1,0.2-0.1,0.3-0.2
		c0.1-0.1,0.2-0.1,0.3-0.2c0.1,0,0.2-0.1,0.3-0.2c0.1,0,0.1-0.1,0.2-0.1c0.1-0.1,0.3-0.2,0.4-0.3c0,0,0,0,0,0
		c0.3-0.2,0.6-0.4,0.9-0.6l0.1,0c0.6-0.4,1.2-0.8,1.9-1.2h0c0,0,0,0,0,0l0.1-0.1l0,0l0.1-0.1l0.3-0.2l0.1-0.1l0.1-0.1l0,0h0v0h0v0h0
		v0h0l1-0.7l0.2-0.1l0.3-0.2l0,0c0.1-0.1,0.3-0.2,0.5-0.3c0,0,0,0,0.1,0c0,0,0.1-0.1,0.1-0.1c0.1,0,0.1-0.1,0.2-0.1
		c0.2-0.1,0.3-0.2,0.4-0.3c0.1-0.1,0.2-0.1,0.3-0.2c0,0,0,0,0,0c1-0.7,2.1-1.4,3.1-2.1c0.1-0.1,0.2-0.2,0.4-0.2c0,0,0,0,0,0
		c0.6-0.4,1.3-0.9,1.9-1.3c0.3-0.2,0.6-0.4,0.9-0.6c0,0,0,0,0,0c0.1-0.1,0.1-0.1,0.2-0.1c0.5-0.3,0.9-0.6,1.3-0.9
		c0.4-0.2,0.7-0.5,1.1-0.7c0,0,0,0,0,0c0.1-0.1,0.2-0.1,0.3-0.2v0c0,0,0.1,0,0.1-0.1v0c0,0,0.1,0,0.1,0c0,0,0.1,0,0.1-0.1
		c0,0,0.1-0.1,0.2-0.1v0c0.2,0.8,0.3,1.6,0.5,2.3C99.6,27.8,99.4,31.6,98.9,34.8z"/>
	<path class="st2" d="M95.4,38.1c-0.3,0-0.6-0.1-0.9-0.1c-0.6,0-6.2,1-6.9,1.1c-0.4,0-0.8,0-1.2,0c-0.7,0.1-1.3,0.4-1.8,0.4
		c-0.3,0-0.5-0.1-0.8-0.1c-0.7,0-1.6,0.2-2.4,0.2c-0.2,0-0.4-0.1-0.5-0.1c-0.2,0-0.3,0.1-0.5,0.1c-0.3,0-0.5-0.1-0.7-0.1
		c-0.5,0-0.9,0.3-1.5,0.4c-0.2,0-0.4,0-0.6,0c-0.3,0-0.6,0.2-1,0.2c-0.4,0.1-0.9,0.2-1.1,0.2c-0.2,0-0.5,0-0.4-0.3
		c0.1-0.3,0.7-0.2,1.2-0.3c0.4-0.1,0.9-0.3,1.2-0.3c0.2,0,0.5,0,0.7,0c0.5,0,1-0.4,1.4-0.4c0.3,0,0.6,0.1,0.9,0.1c0.5,0,1.2,0,1.9,0
		c0.5,0,1-0.2,1.4-0.2c0.3,0,0.5,0.1,0.8,0.1c0.5,0,1.1-0.3,1.7-0.4c0.5-0.1,0.9,0,1.3,0c0.7-0.1,6.2-1.1,6.9-1.1
		c0.3,0,0.5,0.1,0.8,0.1L95.4,38.1z"/>
	<path class="st2" d="M95.8,33.6c-0.3,0-0.5-0.1-0.8-0.1c-0.5,0-5.2,0.7-5.8,0.8c-0.3,0-0.7,0-1,0c-0.6,0-1.1,0.3-1.5,0.3
		c-0.2,0-0.4-0.1-0.7-0.1c-0.6,0-1.4,0.2-2,0.1c-0.2,0-0.3,0-0.4,0c-0.1,0-0.3,0-0.4,0c-0.2,0-0.4-0.1-0.6-0.1
		c-0.4,0-0.8,0.3-1.3,0.3c-0.2,0-0.3,0-0.5,0c-0.2,0-0.5,0.1-0.8,0.2c-0.3,0.1-0.7,0.2-1,0.2c-0.2,0-0.5,0-0.3-0.2
		c0.1-0.2,0.6-0.2,1-0.3c0.4-0.1,0.7-0.2,1-0.2c0.2,0,0.4,0,0.6,0c0.4,0,0.9-0.3,1.2-0.3c0.2,0,0.5,0.1,0.8,0.1c0.4,0,1.1,0,1.6,0
		c0.4,0,0.8-0.1,1.2-0.1c0.3,0,0.4,0.1,0.7,0.1c0.4,0,0.9-0.2,1.4-0.3c0.4,0,0.8,0,1.1,0c0.6,0,5.2-0.8,5.8-0.8
		c0.2,0,0.4,0.1,0.7,0.1L95.8,33.6z"/>
	<path class="st2" d="M84.5,30.1c-0.3,0.2-0.5,0.4-0.8,0.5c0,0,0,0,0,0c-0.6,0.1-1.2,0.2-1.8,0.2c-0.2,0-0.4,0-0.5,0
		c-0.2,0-0.3,0.1-0.5,0.1c-0.3,0-0.5-0.1-0.7-0.1c-0.5,0-0.9,0.3-1.5,0.4c-0.2,0-0.4,0-0.6,0c0,0-0.1,0-0.1,0
		c-0.2,0-0.6,0.2-0.9,0.2c-0.4,0.1-0.9,0.2-1.1,0.2c-0.2,0-0.5,0-0.4-0.3c0.2-0.3,0.7-0.2,1.2-0.4c0.4-0.1,0.8-0.3,1.2-0.3
		c0.2,0,0.5,0,0.7,0c0.3,0,0.6-0.2,0.9-0.3c0.2-0.1,0.4-0.1,0.5-0.1c0.3,0,0.6,0.1,0.9,0.1c0.5,0,1.2,0,1.9,0c0.5,0,1-0.2,1.4-0.2
		C84.4,30,84.4,30.1,84.5,30.1z"/>
	<path class="st2" d="M95.8,29.2c-0.3,0-0.6-0.1-0.9-0.1c-0.6,0-6.2,1-6.9,1.1c-0.4,0-0.8,0-1.2,0c-0.7,0.1-1.3,0.4-1.8,0.4
		c-0.1,0-0.3,0-0.4,0c0.3-0.2,0.5-0.4,0.8-0.5c0,0,0,0,0,0c0.4-0.1,0.9-0.3,1.3-0.3c0.5-0.1,0.9,0,1.3,0c0.5,0,2.6-0.4,4.4-0.7
		c0.1,0,0.1,0,0.2,0c1.1-0.2,2-0.3,2.3-0.3c0.3,0,0.5,0.1,0.8,0.1L95.8,29.2z"/>
	<path class="st2" d="M91,25.2c-0.3,0-0.5-0.1-0.7-0.1c-0.5,0-5,0.7-5.6,0.8c-0.3,0-0.6,0-1,0c-0.5,0-1,0.3-1.5,0.3
		c-0.2,0-0.4-0.1-0.6-0.1c-0.6,0-1.3,0.2-2,0.2c-0.1,0-0.3,0-0.4,0c-0.1,0-0.3,0-0.4,0c-0.2,0-0.4-0.1-0.6-0.1
		c-0.4,0-0.8,0.3-1.2,0.3c-0.2,0-0.3,0-0.5,0c-0.2,0-0.5,0.1-0.8,0.2c-0.3,0.1-0.7,0.2-0.9,0.2c-0.2,0-0.4,0-0.3-0.2
		c0.1-0.2,0.6-0.2,1-0.3c0.4-0.1,0.7-0.2,1-0.2c0.2,0,0.4,0,0.6,0c0.4,0,0.8-0.3,1.2-0.3c0.2,0,0.5,0.1,0.7,0c0.4,0,1,0,1.5,0
		c0.4,0,0.8-0.1,1.2-0.1c0.2,0,0.4,0.1,0.6,0.1c0.4,0,0.9-0.2,1.3-0.3c0.4,0,0.7,0,1.1,0c0.6,0,5-0.8,5.6-0.8c0.2,0,0.4,0.1,0.7,0.1
		L91,25.2z"/>
	<path class="st2" d="M93.2,19.8c-0.3,0-0.6-0.1-0.9-0.1c-0.6,0-6.1,1.2-6.9,1.3c-0.4,0.1-0.8,0-1.2,0c-0.7,0.1-1.3,0.4-1.8,0.4
		c-0.3,0-0.5-0.1-0.8-0.1c-0.7,0-1.6,0.3-2.4,0.3c-0.2,0-0.4,0-0.5,0c-0.2,0-0.3,0.1-0.5,0.1c-0.3,0-0.5-0.1-0.7-0.1
		c-0.5,0-0.9,0.4-1.5,0.4c-0.2,0-0.4,0-0.6,0c-0.3,0-0.6,0.2-0.9,0.3c-0.4,0.1-0.8,0.3-1.1,0.3c-0.2,0-0.5,0-0.4-0.3
		c0.1-0.3,0.7-0.3,1.2-0.4c0.4-0.1,0.8-0.3,1.2-0.3c0.2,0,0.5,0,0.7,0c0.5-0.1,1-0.4,1.4-0.4c0.3,0,0.6,0,0.9,0c0.5,0,1.2,0,1.9-0.1
		c0.5,0,1-0.2,1.4-0.2c0.3,0,0.5,0.1,0.8,0.1c0.5,0,1.1-0.3,1.7-0.4c0.5-0.1,0.9,0,1.3-0.1c0.7-0.1,6.1-1.3,6.9-1.3
		c0.3,0,0.5,0.1,0.8,0.1L93.2,19.8z"/>
	<path class="st2" d="M83.4,15.6c-0.2,0-0.4,0-0.6,0c-0.4,0-3.9,1-4.4,1.1c-0.3,0-0.5,0-0.8,0.1c-0.4,0.1-0.8,0.3-1.2,0.4
		c-0.2,0-0.3,0-0.5,0c-0.5,0-1,0.2-1.5,0.3c-0.1,0-0.2,0-0.3,0c-0.1,0-0.2,0.1-0.3,0.1c-0.2,0-0.3,0-0.5,0c-0.3,0-0.6,0.3-1,0.3
		c-0.1,0-0.2,0-0.4,0c-0.2,0-0.4,0.1-0.6,0.2c-0.2,0.1-0.5,0.2-0.7,0.2c-0.2,0-0.3,0-0.2-0.2c0.1-0.2,0.4-0.2,0.8-0.3
		c0.3-0.1,0.5-0.2,0.8-0.3c0.1,0,0.3,0,0.4,0c0.3-0.1,0.6-0.3,0.9-0.3c0.2,0,0.4,0,0.6,0c0.3,0,0.8,0,1.2-0.1c0.3,0,0.6-0.2,0.9-0.2
		c0.2,0,0.3,0,0.5,0c0.3,0,0.7-0.3,1.1-0.3c0.3-0.1,0.6,0,0.8-0.1c0.5-0.1,3.9-1.1,4.4-1.1c0.2,0,0.3,0,0.5,0L83.4,15.6z"/>
</g>
<g>
	<path class="st0" d="M98.1,21.8C98.1,21.8,98.1,21.8,98.1,21.8c0,0-0.1,0-0.1,0v0c-0.1,0.1-0.2,0.1-0.3,0.2c0,0,0,0,0,0l0,0
		c0,0,0,0,0,0l-5.8,7l-0.5,0.6l-3.5,4.3l-0.4,0.5L83.7,39l-0.5,0.6l-6.5,7.9l-1.4,0.2l0,0l0,0c0,0,0.1,0.1,0.1,0.1l-1,0.2l-0.1-0.1
		l-4.7,0.9c0.6-1.5,1.2-2.9,1.6-4.3c0-0.1,0.1-0.2,0.1-0.3c0.1-0.2,0.1-0.5,0.2-0.7c0,0,0,0,0,0v0c0,0,0,0,0,0c0,0,0,0,0,0
		c0.5-1.6,0.8-3.2,1-4.7c0,0,0,0,0,0c0.2-1.8,0.3-3.6,0.3-5.2c0-0.1,0-0.2,0-0.3c-0.3-6-2.4-10.7-4.7-14.1
		c-3.9-5.6-8.9-8.8-10.1-9.5l25.9-5.6c0.8,0.4,1.5,0.8,2.2,1.3c0,0,0.1,0,0.1,0.1c1.6,1.1,3,2.3,4.3,3.6c0.1,0.1,0.1,0.1,0.2,0.2
		c3.2,3.3,5.1,6.6,6.2,9C94.9,13.9,91,7.4,83.9,3.6l0,0L57.2,9.4l0.3,0.2c0,0,1,0.5,2.4,1.5c0.1,0,0.1,0.1,0.2,0.1
		c2.1,1.5,5.2,4.2,7.8,7.9c0.8,1.2,1.6,2.6,2.3,4.1c0,0.1,0.1,0.1,0.1,0.2c0.1,0.2,0.2,0.4,0.3,0.6c1.6,3.9,2.6,8.8,1.8,14.8
		c0,0,0,0,0,0c-0.2,1.4-0.5,2.8-0.9,4.3c0,0,0,0,0,0c0,0,0,0,0,0c-0.5,1.8-1.2,3.7-2,5.6L69.2,49l6.4-1.2h0l0,0l1.3-0.2l6.7-8.1
		L84,39l3.8-4.6l0.4-0.5l3.5-4.3l0.5-0.6l5.8-7.1L98.1,21.8L98.1,21.8z"/>
</g>
<g>
	<path class="st3" d="M162.8,108.2l-0.4,6.4h-18.5v-1.1c0.3,0,0.7-0.1,1.2-0.1c0.4-0.1,0.7-0.1,0.9-0.2c0.3-0.1,0.6-0.3,0.7-0.6
		s0.2-0.5,0.2-0.9V97.6c0-0.3-0.1-0.6-0.2-0.8c-0.1-0.2-0.4-0.4-0.8-0.6c-0.3-0.1-0.6-0.2-1.1-0.3c-0.4-0.1-0.7-0.1-1-0.2v-1.1h11
		v1.1c-0.3,0-0.7,0.1-1.1,0.1c-0.4,0.1-0.8,0.1-1.1,0.2c-0.4,0.1-0.6,0.3-0.7,0.6c-0.1,0.3-0.2,0.6-0.2,0.9v13.2
		c0,0.6,0,1.1,0.1,1.5s0.3,0.6,0.5,0.8c0.2,0.2,0.6,0.3,1,0.3c0.4,0.1,1,0.1,1.8,0.1c0.8,0,1.5,0,2.2-0.1c0.7-0.1,1.2-0.3,1.5-0.6
		c0.5-0.5,1-1.2,1.5-2c0.5-0.9,0.9-1.7,1.2-2.4H162.8z"/>
	<path class="st3" d="M178.9,111.3c-0.3,0.5-0.7,1-1.2,1.5c-0.5,0.5-1,0.9-1.6,1.2c-0.6,0.4-1.3,0.6-1.9,0.8
		c-0.6,0.2-1.4,0.3-2.2,0.3c-1.4,0-2.6-0.2-3.6-0.6c-1-0.4-1.9-0.9-2.5-1.6s-1.2-1.5-1.5-2.4c-0.3-0.9-0.5-1.9-0.5-3
		c0-1,0.2-1.9,0.5-2.8c0.4-0.9,0.9-1.7,1.5-2.4c0.6-0.7,1.5-1.2,2.4-1.6c1-0.4,2.1-0.6,3.3-0.6c1.3,0,2.4,0.2,3.3,0.5
		s1.6,0.8,2.1,1.3c0.5,0.5,0.9,1.2,1.2,1.9c0.2,0.7,0.4,1.5,0.4,2.3v0.9h-9.6c0,1.9,0.4,3.4,1.1,4.4s1.9,1.5,3.6,1.5
		c0.9,0,1.7-0.2,2.4-0.7c0.7-0.5,1.3-1.1,1.8-1.8L178.9,111.3z M175.3,94c0,0.4-0.1,0.8-0.3,1c-0.2,0.3-0.5,0.5-0.9,0.8
		c-0.5,0.3-1.2,0.7-2.2,1.3c-1,0.6-2.1,1.2-3.4,2l-0.6-0.5c0.8-1.1,1.5-2,1.9-2.6c0.5-0.7,0.8-1.2,1.2-1.7c0.4-0.6,0.8-1,1.2-1.2
		c0.4-0.2,0.8-0.3,1.4-0.3c0.5,0,0.9,0.1,1.2,0.4C175.2,93.3,175.3,93.6,175.3,94z M173.5,105.9c0-0.6,0-1.1-0.1-1.7
		s-0.2-1.1-0.3-1.5c-0.2-0.4-0.4-0.8-0.7-1c-0.3-0.2-0.6-0.3-1.1-0.3c-0.7,0-1.3,0.4-1.7,1.1s-0.7,1.9-0.7,3.5L173.5,105.9z"/>
	<path class="st3" d="M194.7,102.3c0.7,0.7,1.2,1.4,1.6,2.3s0.6,1.9,0.6,2.9c0,1-0.2,2-0.5,3c-0.4,0.9-0.9,1.7-1.6,2.4
		c-0.7,0.7-1.6,1.3-2.7,1.6c-1,0.4-2.2,0.6-3.5,0.6c-1.2,0-2.2-0.2-3.2-0.5c-1-0.3-1.8-0.8-2.6-1.5c-0.7-0.6-1.3-1.4-1.7-2.3
		c-0.4-0.9-0.6-2-0.6-3.1c0-1.1,0.2-2.1,0.5-3c0.4-0.9,0.9-1.7,1.6-2.4c0.7-0.7,1.6-1.2,2.6-1.5c1-0.4,2.2-0.5,3.4-0.5
		c1.3,0,2.5,0.2,3.5,0.5C193.1,101.1,194,101.6,194.7,102.3z M191.1,112.1c0.2-0.5,0.4-1.2,0.5-1.9c0.1-0.8,0.1-1.6,0.1-2.6
		c0-0.7,0-1.4-0.1-2.3s-0.2-1.5-0.4-2c-0.2-0.6-0.5-1.1-0.9-1.4c-0.4-0.3-0.9-0.5-1.5-0.5c-0.7,0-1.2,0.2-1.6,0.6
		c-0.4,0.4-0.7,0.8-0.9,1.4c-0.2,0.5-0.3,1.2-0.4,1.9c-0.1,0.7-0.1,1.5-0.1,2.3c0,1,0,1.9,0.1,2.6c0.1,0.7,0.2,1.4,0.5,2
		c0.2,0.6,0.5,1,0.9,1.4s0.9,0.5,1.5,0.5c0.6,0,1.1-0.2,1.5-0.5C190.5,113.2,190.8,112.7,191.1,112.1z"/>
	<path class="st3" d="M217.4,114.6h-8.5v-1c0.2,0,0.4,0,0.7-0.1s0.4-0.1,0.6-0.1c0.2-0.1,0.3-0.3,0.4-0.5s0.1-0.5,0.1-0.9v-6.6
		c0-1-0.2-1.7-0.5-2.2c-0.4-0.5-0.9-0.7-1.6-0.7c-0.4,0-0.7,0.1-1.1,0.2s-0.6,0.3-1,0.5c-0.3,0.2-0.5,0.4-0.7,0.6
		c-0.2,0.2-0.3,0.4-0.4,0.5v7.6c0,0.3,0,0.6,0.1,0.8c0.1,0.2,0.3,0.4,0.5,0.5c0.2,0.1,0.3,0.2,0.6,0.2s0.4,0.1,0.7,0.1v1h-8.6v-1
		c0.2,0,0.5,0,0.7-0.1c0.2,0,0.4-0.1,0.6-0.1c0.3-0.1,0.5-0.3,0.6-0.5s0.2-0.5,0.2-0.8v-8.2c0-0.3-0.1-0.6-0.2-0.9s-0.3-0.5-0.6-0.7
		c-0.2-0.1-0.4-0.2-0.6-0.3c-0.3-0.1-0.5-0.1-0.9-0.2v-1l6.8-0.4l0.2,0.2v2.1h0.1c0.3-0.2,0.6-0.5,1-0.8s0.7-0.6,1-0.8
		c0.3-0.2,0.8-0.4,1.4-0.6s1.2-0.2,1.8-0.2c1.5,0,2.7,0.4,3.5,1.3c0.8,0.9,1.2,2,1.2,3.5v6.9c0,0.3,0.1,0.6,0.2,0.8s0.3,0.4,0.6,0.5
		c0.2,0.1,0.3,0.1,0.6,0.2s0.5,0.1,0.8,0.1V114.6z"/>
	<path class="st3" d="M244.9,100.3h-1.1c-0.3-0.9-0.8-1.8-1.4-2.8c-0.6-1-1.2-1.5-1.8-1.6c-0.3,0-0.7-0.1-1.1-0.1
		c-0.4,0-0.8,0-1.1,0h-0.7v15.8c0,0.3,0.1,0.6,0.2,0.9c0.1,0.3,0.4,0.5,0.7,0.6c0.2,0.1,0.6,0.2,1,0.3c0.5,0.1,0.8,0.2,1.2,0.2v1.1
		h-11.2v-1.1c0.3,0,0.7-0.1,1.2-0.1c0.5-0.1,0.8-0.1,1-0.2c0.4-0.2,0.6-0.4,0.7-0.6s0.2-0.6,0.2-0.9V95.8H232c-0.3,0-0.7,0-1.1,0
		c-0.4,0-0.8,0.1-1.1,0.1c-0.5,0.1-1.1,0.6-1.8,1.6s-1.1,1.9-1.4,2.8h-1.1v-5.7h19.5V100.3z"/>
	<path class="st3" d="M260.4,102.3c0.7,0.7,1.2,1.4,1.6,2.3s0.6,1.9,0.6,2.9c0,1-0.2,2-0.5,3c-0.4,0.9-0.9,1.7-1.6,2.4
		c-0.7,0.7-1.6,1.3-2.7,1.6c-1,0.4-2.2,0.6-3.5,0.6c-1.2,0-2.2-0.2-3.2-0.5s-1.8-0.8-2.6-1.5c-0.7-0.6-1.3-1.4-1.7-2.3
		c-0.4-0.9-0.6-2-0.6-3.1c0-1.1,0.2-2.1,0.5-3c0.4-0.9,0.9-1.7,1.6-2.4c0.7-0.7,1.6-1.2,2.6-1.5c1-0.4,2.2-0.5,3.4-0.5
		c1.3,0,2.5,0.2,3.5,0.5C258.8,101.1,259.6,101.6,260.4,102.3z M256.7,112.1c0.2-0.5,0.4-1.2,0.5-1.9c0.1-0.8,0.1-1.6,0.1-2.6
		c0-0.7,0-1.4-0.1-2.3s-0.2-1.5-0.4-2c-0.2-0.6-0.5-1.1-0.9-1.4s-0.9-0.5-1.5-0.5c-0.7,0-1.2,0.2-1.6,0.6c-0.4,0.4-0.7,0.8-0.9,1.4
		c-0.2,0.5-0.3,1.2-0.4,1.9c-0.1,0.7-0.1,1.5-0.1,2.3c0,1,0,1.9,0.1,2.6c0.1,0.7,0.2,1.4,0.5,2c0.2,0.6,0.5,1,0.9,1.4
		c0.4,0.3,0.9,0.5,1.5,0.5c0.6,0,1.1-0.2,1.5-0.5C256.2,113.2,256.5,112.7,256.7,112.1z"/>
	<path class="st3" d="M283,114.6h-8.5v-1c0.2,0,0.4,0,0.7-0.1c0.3,0,0.4-0.1,0.6-0.1c0.2-0.1,0.3-0.3,0.4-0.5s0.1-0.5,0.1-0.9v-6.6
		c0-1-0.2-1.7-0.5-2.2c-0.4-0.5-0.9-0.7-1.6-0.7c-0.4,0-0.7,0.1-1.1,0.2c-0.3,0.1-0.6,0.3-1,0.5c-0.3,0.2-0.5,0.4-0.7,0.6
		c-0.2,0.2-0.3,0.4-0.4,0.5v7.6c0,0.3,0,0.6,0.1,0.8c0.1,0.2,0.3,0.4,0.5,0.5c0.2,0.1,0.3,0.2,0.6,0.2s0.4,0.1,0.7,0.1v1h-8.6v-1
		c0.2,0,0.5,0,0.7-0.1c0.2,0,0.4-0.1,0.6-0.1c0.3-0.1,0.5-0.3,0.6-0.5s0.2-0.5,0.2-0.8v-8.2c0-0.3-0.1-0.6-0.2-0.9s-0.3-0.5-0.6-0.7
		c-0.2-0.1-0.4-0.2-0.6-0.3s-0.5-0.1-0.9-0.2v-1l6.8-0.4l0.2,0.2v2.1h0.1c0.3-0.2,0.6-0.5,1-0.8s0.7-0.6,1-0.8
		c0.3-0.2,0.8-0.4,1.4-0.6s1.2-0.2,1.8-0.2c1.5,0,2.7,0.4,3.5,1.3c0.8,0.9,1.2,2,1.2,3.5v6.9c0,0.3,0.1,0.6,0.2,0.8s0.3,0.4,0.6,0.5
		c0.2,0.1,0.3,0.1,0.6,0.2s0.5,0.1,0.8,0.1V114.6z"/>
	<path class="st3" d="M303,114.6h-8.5v-1c0.2,0,0.4,0,0.7-0.1c0.3,0,0.4-0.1,0.6-0.1c0.2-0.1,0.3-0.3,0.4-0.5s0.1-0.5,0.1-0.9v-6.6
		c0-1-0.2-1.7-0.5-2.2c-0.4-0.5-0.9-0.7-1.6-0.7c-0.4,0-0.7,0.1-1.1,0.2c-0.3,0.1-0.6,0.3-1,0.5c-0.3,0.2-0.5,0.4-0.7,0.6
		c-0.2,0.2-0.3,0.4-0.4,0.5v7.6c0,0.3,0,0.6,0.1,0.8c0.1,0.2,0.3,0.4,0.5,0.5c0.2,0.1,0.3,0.2,0.6,0.2s0.4,0.1,0.7,0.1v1h-8.6v-1
		c0.2,0,0.5,0,0.7-0.1c0.2,0,0.4-0.1,0.6-0.1c0.3-0.1,0.5-0.3,0.6-0.5s0.2-0.5,0.2-0.8v-8.2c0-0.3-0.1-0.6-0.2-0.9s-0.3-0.5-0.6-0.7
		c-0.2-0.1-0.4-0.2-0.6-0.3s-0.5-0.1-0.9-0.2v-1l6.8-0.4l0.2,0.2v2.1h0.1c0.3-0.2,0.6-0.5,1-0.8s0.7-0.6,1-0.8
		c0.3-0.2,0.8-0.4,1.4-0.6s1.2-0.2,1.8-0.2c1.5,0,2.7,0.4,3.5,1.3c0.8,0.9,1.2,2,1.2,3.5v6.9c0,0.3,0.1,0.6,0.2,0.8s0.3,0.4,0.6,0.5
		c0.2,0.1,0.3,0.1,0.6,0.2s0.5,0.1,0.8,0.1V114.6z"/>
	<path class="st3" d="M319.6,111.3c-0.3,0.5-0.7,1-1.2,1.5c-0.5,0.5-1,0.9-1.6,1.2c-0.6,0.4-1.3,0.6-1.9,0.8
		c-0.6,0.2-1.4,0.3-2.2,0.3c-1.4,0-2.6-0.2-3.6-0.6s-1.9-0.9-2.5-1.6s-1.2-1.5-1.5-2.4c-0.3-0.9-0.5-1.9-0.5-3c0-1,0.2-1.9,0.5-2.8
		c0.4-0.9,0.9-1.7,1.5-2.4c0.6-0.7,1.5-1.2,2.4-1.6c1-0.4,2.1-0.6,3.3-0.6c1.3,0,2.4,0.2,3.3,0.5s1.6,0.8,2.1,1.3
		c0.5,0.5,0.9,1.2,1.2,1.9c0.2,0.7,0.4,1.5,0.4,2.3v0.9h-9.6c0,1.9,0.4,3.4,1.1,4.4c0.7,1,1.9,1.5,3.6,1.5c0.9,0,1.7-0.2,2.4-0.7
		c0.7-0.5,1.3-1.1,1.8-1.8L319.6,111.3z M314.2,105.9c0-0.6,0-1.1-0.1-1.7s-0.2-1.1-0.3-1.5c-0.2-0.4-0.4-0.8-0.7-1
		s-0.6-0.3-1.1-0.3c-0.7,0-1.3,0.4-1.7,1.1s-0.7,1.9-0.7,3.5L314.2,105.9z"/>
	<path class="st3" d="M329.6,114.6h-8.9v-1c0.2,0,0.5,0,0.7-0.1c0.2,0,0.4-0.1,0.6-0.1c0.3-0.1,0.5-0.3,0.6-0.5
		c0.1-0.2,0.2-0.5,0.2-0.8V96.4c0-0.4-0.1-0.7-0.2-1c-0.1-0.3-0.3-0.5-0.6-0.7c-0.2-0.1-0.5-0.2-0.9-0.4c-0.4-0.1-0.7-0.2-1-0.2v-1
		l7.1-0.4l0.2,0.2v18.9c0,0.3,0.1,0.6,0.2,0.8c0.1,0.2,0.3,0.4,0.6,0.5c0.2,0.1,0.4,0.2,0.6,0.2s0.5,0.1,0.7,0.1V114.6z"/>
	<path class="st3" d="M339.9,114.6h-8.9v-1c0.2,0,0.5,0,0.7-0.1c0.2,0,0.4-0.1,0.6-0.1c0.3-0.1,0.5-0.3,0.6-0.5
		c0.1-0.2,0.2-0.5,0.2-0.8v-8.2c0-0.3-0.1-0.6-0.2-0.9c-0.2-0.3-0.3-0.5-0.6-0.6c-0.2-0.1-0.4-0.2-0.8-0.3s-0.7-0.2-0.9-0.2v-1
		l6.9-0.4l0.2,0.2v11.2c0,0.3,0.1,0.6,0.2,0.8c0.1,0.2,0.3,0.4,0.6,0.5c0.2,0.1,0.4,0.2,0.6,0.2s0.5,0.1,0.7,0.1V114.6z M337.8,95.3
		c0,0.7-0.3,1.3-0.8,1.8c-0.6,0.5-1.2,0.8-2,0.8c-0.8,0-1.4-0.3-2-0.8c-0.6-0.5-0.8-1.1-0.8-1.8s0.3-1.3,0.8-1.8
		c0.6-0.5,1.2-0.8,2-0.8c0.8,0,1.4,0.3,2,0.8S337.8,94.6,337.8,95.3z"/>
	<path class="st3" d="M356.4,111.3c-0.3,0.5-0.7,1-1.2,1.5c-0.5,0.5-1,0.9-1.6,1.2c-0.6,0.4-1.3,0.6-1.9,0.8
		c-0.6,0.2-1.4,0.3-2.2,0.3c-1.4,0-2.6-0.2-3.6-0.6s-1.9-0.9-2.5-1.6s-1.2-1.5-1.5-2.4c-0.3-0.9-0.5-1.9-0.5-3c0-1,0.2-1.9,0.5-2.8
		c0.4-0.9,0.9-1.7,1.5-2.4c0.6-0.7,1.5-1.2,2.4-1.6c1-0.4,2.1-0.6,3.3-0.6c1.3,0,2.4,0.2,3.3,0.5s1.6,0.8,2.1,1.3
		c0.5,0.5,0.9,1.2,1.2,1.9c0.2,0.7,0.4,1.5,0.4,2.3v0.9h-9.6c0,1.9,0.4,3.4,1.1,4.4c0.7,1,1.9,1.5,3.6,1.5c0.9,0,1.7-0.2,2.4-0.7
		c0.7-0.5,1.3-1.1,1.8-1.8L356.4,111.3z M351,105.9c0-0.6,0-1.1-0.1-1.7s-0.2-1.1-0.3-1.5c-0.2-0.4-0.4-0.8-0.7-1s-0.6-0.3-1.1-0.3
		c-0.7,0-1.3,0.4-1.7,1.1s-0.7,1.9-0.7,3.5L351,105.9z"/>
	<path class="st3" d="M371.8,103.2c0,0.7-0.2,1.3-0.7,1.9c-0.4,0.5-1,0.8-1.8,0.8c-0.7,0-1.3-0.2-1.7-0.5c-0.5-0.3-0.7-0.9-0.7-1.5
		c0-0.3,0-0.6,0.1-0.8c0-0.2,0.1-0.4,0.1-0.5c-0.4,0-0.9,0.2-1.4,0.4s-0.9,0.7-1.3,1.1v7.8c0,0.3,0.1,0.6,0.2,0.8
		c0.1,0.2,0.3,0.4,0.5,0.5c0.2,0.1,0.5,0.2,1,0.3c0.5,0.1,0.8,0.1,1,0.1v1h-9.5v-1c0.2,0,0.5,0,0.7-0.1c0.2,0,0.4-0.1,0.6-0.1
		c0.3-0.1,0.5-0.3,0.6-0.5s0.2-0.5,0.2-0.8v-8.2c0-0.3-0.1-0.6-0.2-0.9c-0.2-0.3-0.4-0.5-0.6-0.6c-0.2-0.1-0.4-0.2-0.6-0.3
		s-0.5-0.1-0.9-0.2v-1l6.8-0.4l0.2,0.2v2.1h0.1c0.7-0.8,1.3-1.3,2.1-1.8c0.7-0.4,1.5-0.6,2.3-0.6c0.9,0,1.6,0.3,2.1,0.8
		C371.6,101.6,371.8,102.3,371.8,103.2z"/>
</g>
<g>
	<g>
		<path class="st3" d="M164.4,79.4H156v-1c0.7,0,1.3-0.1,1.8-0.3c0.5-0.1,0.7-0.3,0.7-0.5c0-0.1,0-0.2,0-0.3c0-0.1,0-0.2-0.1-0.3
			l-1.7-4.5h-7.1c-0.3,0.7-0.5,1.2-0.6,1.7s-0.3,0.9-0.4,1.4c-0.1,0.4-0.2,0.7-0.3,1s-0.1,0.5-0.1,0.6c0,0.4,0.3,0.7,0.9,0.9
			s1.3,0.3,2,0.4v1h-7.6v-1c0.2,0,0.6-0.1,0.9-0.2c0.4-0.1,0.7-0.2,0.9-0.4c0.4-0.3,0.7-0.5,0.9-0.8c0.2-0.3,0.4-0.7,0.6-1.2
			c1-2.5,2.1-5.4,3.3-8.5s2.3-5.9,3.3-8.4h1.1l6.7,17.3c0.1,0.4,0.3,0.7,0.5,0.9s0.4,0.4,0.8,0.7c0.2,0.1,0.5,0.2,0.8,0.3
			c0.3,0.1,0.6,0.1,0.9,0.1V79.4z M156.3,71.2l-3-7.8l-3,7.8H156.3z"/>
		<path class="st3" d="M171.2,79.7c-2,0-3.6-0.7-4.7-2s-1.7-3.1-1.7-5.4c0-1,0.2-1.9,0.5-2.8c0.3-0.9,0.8-1.6,1.3-2.3
			c0.6-0.7,1.3-1.2,2.1-1.6c0.8-0.4,1.8-0.6,2.7-0.6c1.4,0,2.5,0.3,3.3,1c0.9,0.7,1.3,1.6,1.3,2.7c0,0.5-0.1,0.9-0.3,1.3
			c-0.2,0.4-0.6,0.5-1.1,0.5c-0.6,0-1-0.1-1.3-0.4c-0.3-0.3-0.5-0.6-0.5-0.9c0-0.4,0.1-0.9,0.2-1.3s0.2-0.8,0.2-1
			c-0.2-0.3-0.4-0.5-0.8-0.6s-0.7-0.1-1.1-0.1c-0.5,0-0.9,0.1-1.3,0.3c-0.4,0.2-0.8,0.6-1.2,1.1c-0.3,0.5-0.6,1.1-0.8,1.9
			s-0.3,1.8-0.3,2.9c0,1.8,0.4,3.2,1.2,4.3c0.8,1.1,1.8,1.7,3.1,1.7c0.9,0,1.7-0.2,2.3-0.7c0.6-0.4,1.2-1.1,1.7-2l0.9,0.6
			c-0.6,1.1-1.4,2-2.5,2.6S172.3,79.7,171.2,79.7z"/>
		<path class="st3" d="M191.1,79.1c-0.4,0.2-0.8,0.3-1.2,0.4c-0.3,0.1-0.7,0.1-1.1,0.1c-0.7,0-1.3-0.2-1.8-0.5
			c-0.4-0.3-0.7-0.8-0.8-1.5h-0.1c-0.6,0.7-1.3,1.2-2,1.6c-0.7,0.4-1.6,0.5-2.5,0.5c-1,0-1.9-0.3-2.6-1c-0.7-0.6-1-1.5-1-2.5
			c0-0.5,0.1-1,0.2-1.4s0.4-0.8,0.7-1.1c0.2-0.3,0.5-0.5,0.9-0.8c0.4-0.2,0.8-0.4,1.1-0.5c0.4-0.2,1.3-0.5,2.6-0.9
			c1.3-0.4,2.2-0.8,2.6-1v-1.4c0-0.1,0-0.4-0.1-0.7c-0.1-0.3-0.2-0.7-0.3-1c-0.2-0.3-0.5-0.7-0.8-0.9c-0.3-0.3-0.8-0.4-1.5-0.4
			c-0.4,0-0.8,0.1-1.2,0.2c-0.4,0.1-0.6,0.3-0.8,0.5c0,0.2,0,0.5,0.1,0.8c0.1,0.4,0.1,0.7,0.1,1c0,0.3-0.1,0.6-0.4,0.9
			c-0.3,0.3-0.7,0.4-1.2,0.4c-0.5,0-0.8-0.2-1-0.5c-0.2-0.3-0.3-0.7-0.3-1.1c0-0.4,0.2-0.8,0.5-1.2c0.3-0.4,0.7-0.8,1.2-1.1
			c0.4-0.3,0.9-0.5,1.5-0.7c0.6-0.2,1.2-0.3,1.8-0.3c0.8,0,1.5,0.1,2.1,0.2c0.6,0.1,1.1,0.3,1.6,0.7c0.5,0.3,0.8,0.8,1.1,1.4
			c0.3,0.6,0.4,1.4,0.4,2.3c0,1.4,0,2.5,0,3.6c0,1,0,2.2,0,3.4c0,0.4,0.1,0.7,0.2,0.9c0.1,0.2,0.3,0.4,0.6,0.6
			c0.1,0.1,0.4,0.1,0.7,0.1c0.3,0,0.6,0,0.9,0V79.1z M186.2,71.6c-0.8,0.2-1.5,0.5-2.1,0.7s-1.2,0.5-1.7,0.9
			c-0.5,0.3-0.8,0.7-1.1,1.1s-0.4,1-0.4,1.6c0,0.8,0.2,1.4,0.6,1.7c0.4,0.4,0.9,0.6,1.6,0.6c0.7,0,1.3-0.2,1.8-0.5
			c0.5-0.3,0.9-0.7,1.3-1.2L186.2,71.6z"/>
		<path class="st3" d="M207.8,79.1l-4.9,0.3l-0.2-0.2v-1.3l-0.1,0c-0.5,0.5-1.1,1-1.8,1.3s-1.5,0.5-2.2,0.5c-0.8,0-1.6-0.2-2.3-0.5
			c-0.7-0.4-1.4-0.9-1.9-1.5c-0.6-0.7-1-1.4-1.3-2.4s-0.5-1.9-0.5-3c0-1,0.2-2,0.5-2.9s0.8-1.7,1.4-2.4c0.6-0.6,1.3-1.1,2.1-1.5
			c0.8-0.4,1.7-0.6,2.6-0.6c0.7,0,1.3,0.1,1.9,0.2c0.6,0.2,1.2,0.4,1.6,0.6V61c0-0.4-0.1-0.8-0.2-1.1s-0.3-0.6-0.6-0.7
			c-0.3-0.2-0.6-0.3-1.1-0.4c-0.4-0.1-0.9-0.1-1.5-0.2v-0.9l5.7-0.3l0.2,0.2v18.8c0,0.3,0.1,0.6,0.2,0.8c0.1,0.2,0.3,0.4,0.6,0.6
			c0.2,0.1,0.4,0.2,0.8,0.2s0.7,0,0.9,0.1V79.1z M202.7,76.7v-8.2c-0.1-0.2-0.2-0.5-0.4-0.8s-0.4-0.5-0.6-0.8
			c-0.3-0.2-0.6-0.4-1-0.6c-0.4-0.2-0.8-0.2-1.3-0.2c-0.6,0-1.1,0.1-1.6,0.4c-0.5,0.3-0.9,0.7-1.3,1.3c-0.3,0.5-0.6,1.2-0.8,2
			c-0.2,0.8-0.3,1.7-0.3,2.7c0,0.8,0.1,1.5,0.2,2.2c0.2,0.6,0.4,1.2,0.8,1.8c0.3,0.5,0.8,1,1.3,1.3c0.5,0.3,1.1,0.5,1.8,0.5
			c0.8,0,1.4-0.2,1.9-0.5C201.9,77.4,202.4,77.1,202.7,76.7z"/>
		<path class="st3" d="M221.6,76.1c-0.6,1.1-1.4,2-2.3,2.7c-1,0.7-2.1,1-3.4,1c-1.1,0-2.1-0.2-3-0.6c-0.8-0.4-1.5-0.9-2.1-1.6
			s-1-1.5-1.2-2.4c-0.3-0.9-0.4-1.9-0.4-2.9c0-0.9,0.1-1.8,0.4-2.7c0.3-0.9,0.7-1.7,1.3-2.4c0.5-0.7,1.2-1.2,2-1.6
			c0.8-0.4,1.7-0.6,2.7-0.6c1,0,1.9,0.2,2.6,0.5s1.3,0.8,1.8,1.3c0.4,0.5,0.8,1.2,1,1.9s0.3,1.5,0.3,2.3V72H212
			c0,0.9,0.1,1.8,0.3,2.5c0.2,0.7,0.5,1.4,0.8,2c0.4,0.5,0.8,1,1.4,1.3c0.6,0.3,1.3,0.5,2.1,0.5c0.8,0,1.6-0.2,2.2-0.6
			c0.6-0.4,1.2-1.1,1.8-2.1L221.6,76.1z M218.5,70.8c0-0.5,0-1.1-0.1-1.7c-0.1-0.6-0.2-1.1-0.4-1.5c-0.2-0.4-0.5-0.8-0.9-1.1
			c-0.4-0.3-0.9-0.4-1.5-0.4c-1,0-1.8,0.4-2.5,1.2c-0.7,0.8-1,2-1.1,3.4H218.5z M219,58.7c0,0.4-0.1,0.7-0.2,0.9
			c-0.2,0.2-0.4,0.5-0.7,0.7c-0.5,0.4-1.1,0.9-1.8,1.4s-1.6,1.2-2.5,1.9l-0.5-0.5c0.8-1.3,1.4-2.1,1.8-2.7c0.3-0.5,0.7-1.1,1.1-1.7
			c0.3-0.5,0.6-0.8,0.8-1c0.3-0.2,0.6-0.3,0.9-0.3c0.3,0,0.6,0.1,0.8,0.3C218.8,58.2,219,58.4,219,58.7z"/>
		<path class="st3" d="M247.1,79.4h-6.8v-0.9c0.2,0,0.4,0,0.7-0.1s0.4-0.1,0.6-0.1c0.3-0.1,0.5-0.2,0.6-0.4c0.1-0.2,0.2-0.5,0.2-0.8
			v-7.2c0-1-0.2-1.7-0.7-2.3c-0.4-0.5-1-0.8-1.7-0.8c-0.5,0-0.9,0.1-1.3,0.2s-0.8,0.3-1.1,0.6c-0.3,0.2-0.5,0.4-0.7,0.7
			c-0.2,0.2-0.3,0.4-0.4,0.6v8.1c0,0.3,0.1,0.6,0.2,0.8c0.1,0.2,0.3,0.4,0.6,0.5c0.2,0.1,0.4,0.1,0.6,0.2c0.2,0,0.4,0.1,0.7,0.1v0.9
			h-6.7v-0.9c0.2,0,0.4,0,0.6-0.1s0.4-0.1,0.6-0.1c0.3-0.1,0.5-0.2,0.6-0.4c0.1-0.2,0.2-0.5,0.2-0.8v-7.2c0-1-0.2-1.7-0.7-2.3
			c-0.4-0.5-1-0.8-1.7-0.8c-0.5,0-0.9,0.1-1.3,0.2c-0.4,0.1-0.8,0.3-1.1,0.6c-0.3,0.2-0.5,0.4-0.7,0.7c-0.2,0.3-0.3,0.5-0.4,0.6v8
			c0,0.3,0.1,0.6,0.2,0.8s0.3,0.4,0.6,0.5c0.2,0.1,0.4,0.2,0.6,0.2c0.2,0,0.4,0.1,0.7,0.1v0.9h-6.8v-0.9c0.2,0,0.4,0,0.7-0.1
			s0.4-0.1,0.6-0.1c0.3-0.1,0.5-0.2,0.6-0.4c0.1-0.2,0.2-0.5,0.2-0.8v-8.7c0-0.3-0.1-0.6-0.2-0.8c-0.1-0.2-0.3-0.4-0.6-0.6
			c-0.2-0.1-0.4-0.2-0.7-0.3c-0.3-0.1-0.5-0.1-0.8-0.1v-0.9l4.7-0.3l0.2,0.2v2h0.1c0.2-0.2,0.5-0.5,0.9-0.8s0.7-0.6,0.9-0.8
			c0.3-0.2,0.7-0.4,1.2-0.6c0.5-0.2,1-0.2,1.6-0.2c0.9,0,1.7,0.2,2.3,0.7c0.7,0.5,1.1,1.1,1.4,1.8c0.3-0.3,0.6-0.6,0.9-0.9
			c0.3-0.3,0.6-0.5,1-0.8c0.4-0.2,0.8-0.4,1.3-0.6s1-0.2,1.6-0.2c1.2,0,2.1,0.4,2.8,1.2s1,2,1,3.6v7.1c0,0.3,0.1,0.6,0.2,0.8
			c0.1,0.2,0.3,0.4,0.6,0.5c0.2,0.1,0.4,0.1,0.6,0.2c0.2,0,0.5,0.1,0.7,0.1V79.4z"/>
		<path class="st3" d="M255.5,79.4h-6.7v-0.9c0.2,0,0.4,0,0.7-0.1s0.4-0.1,0.6-0.1c0.3-0.1,0.5-0.2,0.6-0.4c0.1-0.2,0.2-0.5,0.2-0.8
			v-8.6c0-0.3-0.1-0.6-0.2-0.8s-0.3-0.5-0.6-0.6c-0.2-0.1-0.4-0.2-0.8-0.3c-0.3-0.1-0.7-0.1-0.9-0.1v-0.9l4.9-0.3l0.2,0.2v11.4
			c0,0.3,0.1,0.6,0.2,0.8c0.1,0.2,0.3,0.4,0.6,0.5c0.2,0.1,0.4,0.2,0.6,0.2c0.2,0.1,0.4,0.1,0.7,0.1V79.4z M253.7,59.7
			c0,0.5-0.2,1-0.5,1.4c-0.4,0.4-0.8,0.6-1.3,0.6c-0.5,0-0.9-0.2-1.3-0.6c-0.4-0.4-0.5-0.8-0.5-1.3c0-0.5,0.2-1,0.5-1.4
			c0.4-0.4,0.8-0.6,1.3-0.6c0.5,0,1,0.2,1.3,0.5C253.6,58.8,253.7,59.3,253.7,59.7z"/>
		<path class="st3" d="M269.7,76.1c-0.6,1.1-1.4,2-2.4,2.7s-2.1,1-3.4,1c-1.1,0-2.1-0.2-3-0.6s-1.5-0.9-2.1-1.6
			c-0.5-0.7-1-1.5-1.2-2.4c-0.3-0.9-0.4-1.9-0.4-2.9c0-0.9,0.1-1.8,0.4-2.7c0.3-0.9,0.7-1.7,1.3-2.4c0.5-0.7,1.2-1.2,2-1.6
			c0.8-0.4,1.7-0.6,2.7-0.6c1,0,1.9,0.2,2.6,0.5s1.3,0.8,1.8,1.3c0.4,0.5,0.8,1.2,1,1.9c0.2,0.7,0.3,1.5,0.3,2.3V72h-9.2
			c0,0.9,0.1,1.8,0.3,2.5c0.2,0.7,0.5,1.4,0.8,2c0.4,0.5,0.8,1,1.4,1.3c0.6,0.3,1.3,0.5,2.1,0.5c0.8,0,1.6-0.2,2.2-0.6
			c0.6-0.4,1.2-1.1,1.8-2.1L269.7,76.1z M266.5,70.8c0-0.5,0-1.1-0.1-1.7c-0.1-0.6-0.2-1.1-0.4-1.5c-0.2-0.4-0.5-0.8-0.9-1.1
			s-0.9-0.4-1.5-0.4c-1,0-1.8,0.4-2.5,1.2c-0.7,0.8-1,2-1.1,3.4H266.5z"/>
	</g>
</g>
<path class="st4" d="M84.6,59.2L84.6,59.2c-0.5,0-1.1-0.1-1.6-0.2l0,0C83.6,59,84.2,59.1,84.6,59.2z"/>
<path class="st5" d="M84.6,30.6c-0.7,0.4-1.3,0.8-1.9,1.3c-0.6,0.4-1.2,0.8-1.8,1.2c-0.4,0.3-0.8,0.6-1.3,0.8
	c-0.2,0.1-0.3,0.2-0.5,0.3c-0.7,0.5-1.4,0.9-2,1.3c-0.2,0.1-0.3,0.2-0.5,0.3c-0.8,0.5-1.5,1-2.2,1.4c-0.1,0.1-0.2,0.1-0.3,0.2
	c-0.3,0.2-0.5,0.4-0.8,0.5c0,0-0.1,0-0.1,0.1c-0.1-0.2-0.2-0.3-0.3-0.4c0.1-0.1,0.3-0.2,0.4-0.3c0.1-0.1,0.2-0.1,0.3-0.2
	c0,0,0,0,0,0c2.7-1.8,6.2-4.1,10.1-6.7c0,0,0,0,0,0c0.2,0,0.4,0,0.6,0C84.4,30.6,84.5,30.6,84.6,30.6z"/>
<g>
	<path class="st1" d="M120.6,72.2l-0.6,0.5L89.1,98.7l-2.1,1.8H13.9l-1.2-0.1c3-0.8,6-1.5,9.1-2.1c1.8-0.4,3.7-0.8,5.6-1.1
		c1.3-0.2,2.7-0.5,4-0.7c1.1-0.2,2.3-0.4,3.4-0.6c1.5-0.2,2.9-0.5,4.4-0.7c21.4-3.3,40.8-4.4,41.9-4.5c0,0,0.1,0,0.1,0l2.9-3.5l0,0
		l0.3-0.3l0,0l1.6-1.9l0,0l0.3-0.4l0,0l1.8-2.2l0,0l0.3-0.3l0,0l1.6-2l0,0l0.3-0.4l0,0l4.1-4.9l2-2.4h11.1L120.6,72.2z"/>
</g>
<polygon class="st6" points="121.3,72.2 121.3,73 121.3,73.6 121,73.9 121.1,74.2 121.1,74.8 121.1,75.6 121.1,75.7 121.3,75.4 
	121.3,76.1 121.1,76.3 121.1,77.2 121.4,76.9 121.4,77.5 121.1,77.8 121.1,78.1 121.3,77.9 121.3,78.6 121.1,78.8 121.1,79.8 
	121.1,80.6 121.3,80.4 121.3,81.1 121.1,81.3 121.1,82.1 121.4,81.8 121.4,82.5 121.1,82.7 121.1,83.4 87.5,111.6 9,111.6 9,100.2 
	13.8,100.5 87,100.5 "/>
<path class="st7" d="M79.9,68.1"/>
<path class="st7" d="M79.9,68.1"/>
<path class="st7" d="M64.6,97.4"/>
<path class="st7" d="M67.2,97.4"/>
<path class="st7" d="M117.3,65.7"/>
<path class="st7" d="M71.8,81.9"/>
<path class="st7" d="M117.4,65.7"/>
<path class="st5" d="M12,100.4l26.8-6.2l0.4,0.9l8.6-4.7l23.4-12.8l1.3-0.7l0.2-0.1h0l7.3-4l1.4-0.8l6.8-3.7l1.2-0.6l1.5-0.8
	l1.2-0.6l11.2-2.4l-9,10.9l-4.1,4.9c0,0,0,0,0.1,0l0,0l4.1-4.9l2-2.4h11.1l-3.8,4.6l-0.3,0.4l-2,2.4l-0.3,0.4l-0.9,1l-0.6,0.7
	c0,0,0,0,0,0l-0.3,0.4L87.1,97c0,0-16.6,1.2-34,3.4H12z"/>
<path class="st1" d="M162.5,26.8l-1.7,1.3l-4.5,3.4l-41.2,31.5l-3,2.3l-0.5,0.4l-0.3,0.2l0,0c-0.1-0.1-0.2-0.2-0.3-0.3c0,0,0,0,0,0
	c0,0,0,0-0.1-0.1c0,0,0,0,0,0c-0.3-0.3-0.5-0.5-0.8-0.8c-0.1-0.1-0.3-0.3-0.4-0.4c-0.1-0.1-0.2-0.1-0.2-0.2c0,0,0,0,0,0
	c-0.4-0.3-0.8-0.7-1.2-1c-0.4-0.3-0.7-0.5-1.1-0.8c0,0,0,0,0,0c0,0,0,0,0,0c-0.3-0.2-0.6-0.4-1-0.6c-0.3-0.2-0.6-0.4-1-0.6
	c-2.4-1.4-5-2.4-7.6-3.2c-0.2-0.1-0.3-0.1-0.5-0.2l0,0l-0.1,0l0,0c-0.2-0.1-0.4-0.1-0.6-0.2c0,0,0,0,0,0h0c0,0,0,0,0,0
	c-1.4-0.4-2.8-0.7-4.1-1c-0.9-0.2-1.7-0.4-2.5-0.6c-1.3-0.3-2.5-0.5-3.6-0.8c-0.2,0-0.4-0.1-0.5-0.1C85.3,55,85.1,55,85,54.9
	c0,0,0,0-0.1,0c-0.3-0.1-0.5-0.2-0.8-0.3c-0.4-0.2-0.8-0.4-1.2-0.6c0,0-0.1,0-0.1,0c-0.1,0-0.2-0.1-0.3-0.2c-0.1,0-0.2-0.1-0.2-0.1
	c0,0-0.1-0.1-0.1-0.1c0,0,0,0-0.1,0l0,0c0,0,0,0,0,0c0,0,0,0,0,0c-0.1-0.1-0.2-0.2-0.4-0.2c0,0,0,0-0.1,0h0
	c-0.8-0.6-1.7-1.2-2.5-1.9c-0.2-0.2-0.4-0.4-0.6-0.6c-0.2-0.2-0.4-0.4-0.7-0.6c-0.1-0.1-0.3-0.2-0.4-0.4c-0.5-0.4-0.9-0.9-1.3-1.3
	c0,0-0.1-0.1-0.1-0.1l0,0h0c0,0,0,0-0.1-0.1v0h0c-0.1-0.1-0.2-0.2-0.3-0.3l0,0c0,0,0,0-0.1-0.1c0,0-0.1-0.1-0.1-0.1
	c-0.2-0.2-0.4-0.4-0.6-0.6c0-0.1-0.1-0.1-0.1-0.2c0,0-0.1-0.1-0.2-0.2c-0.5-0.5-1-1-1.4-1.5c0-0.1-0.1-0.1-0.2-0.2
	c-0.1-0.1-0.2-0.2-0.3-0.3c0,0,0,0-0.1-0.1v0c-0.1-0.1-0.2-0.2-0.4-0.4c-0.1-0.1-0.2-0.2-0.3-0.3c0,0,0-0.1-0.1-0.1c0,0,0,0-0.1-0.1
	c0,0,0-0.1-0.1-0.1c0-0.1-0.1-0.1-0.1-0.2c0,0,0,0,0,0v0c-0.1-0.1-0.1-0.1-0.2-0.2c0,0-0.1-0.1-0.1-0.1l0,0v0c0,0,0,0,0,0h0
	c-0.1-0.2-0.3-0.3-0.4-0.5c0,0,0,0,0,0c-0.2-0.2-0.3-0.4-0.5-0.6c0,0,0,0,0,0c0,0-0.1-0.1-0.1-0.1c-0.1-0.1-0.2-0.2-0.2-0.3
	c0,0,0,0,0-0.1c0,0,0-0.1-0.1-0.1c0,0,0-0.1-0.1-0.1L69.6,41c-0.1-0.2-0.2-0.3-0.2-0.3l0,0l0.2-0.1l0.2-0.1c0.1-0.1,0.3-0.2,0.6-0.4
	c0.1,0,0.1-0.1,0.2-0.1c0.1-0.1,0.3-0.2,0.5-0.3c0.1,0,0.2-0.1,0.3-0.2c0.1,0,0.2-0.1,0.3-0.2v0c0.1-0.1,0.2-0.1,0.3-0.2h0
	c0,0,0,0,0,0h0c0,0,0,0,0,0c0.1,0,0.1-0.1,0.2-0.1c0,0,0,0,0.1,0v0h0v0h0c0,0,0,0,0,0v0h0l0,0c0,0,0,0,0,0c0,0,0.1-0.1,0.2-0.1
	l0.1-0.1l0,0l0.6-0.4l0,0c0,0,0,0,0,0h0c0,0,0,0,0,0c0,0,0,0,0,0c0,0,0,0,0,0c0,0,0,0,0,0c0.2-0.2,0.5-0.3,0.8-0.5
	c0.1-0.1,0.2-0.1,0.3-0.2c0.3-0.2,0.7-0.5,1.1-0.7c0.2-0.1,0.4-0.2,0.6-0.4c0.2-0.1,0.4-0.2,0.5-0.4c0.2-0.1,0.3-0.2,0.5-0.3
	c0,0,0,0,0,0c0.1,0,0.1-0.1,0.2-0.1c0.3-0.2,0.5-0.3,0.8-0.5c0,0,0,0,0,0h0c0,0,0,0,0,0c0,0,0.1-0.1,0.1-0.1
	c0.1-0.1,0.2-0.2,0.4-0.2c0.2-0.1,0.3-0.2,0.5-0.3c0.2-0.1,0.3-0.2,0.5-0.3c0,0,0,0,0,0c0,0,0,0,0,0c0,0,0,0,0.1,0c0,0,0,0,0,0
	c0,0,0,0,0,0c0,0,0,0,0,0c0,0,0.1,0,0.1-0.1c0,0,0,0,0,0c0,0,0.1,0,0.1-0.1c0.1,0,0.1-0.1,0.2-0.1c0,0,0,0,0,0
	c0.1-0.1,0.2-0.1,0.3-0.2c0.1-0.1,0.2-0.1,0.3-0.2c0,0,0,0,0,0c0.1,0,0.1-0.1,0.2-0.1c0.1,0,0.1-0.1,0.2-0.1
	c0.1-0.1,0.3-0.2,0.4-0.3c0,0,0,0,0,0c0.3-0.2,0.6-0.4,0.9-0.6l0.1,0c0.6-0.4,1.2-0.8,1.9-1.2h0c0,0,0,0,0,0l0.1-0.1l0,0l0.1-0.1
	l0.3-0.2l0.1-0.1l0.1-0.1l0,0h0c0,0,0,0,0,0h0c0,0,0,0,0,0h0v0h0l1-0.7l0.2-0.1l0.3-0.2l0,0c0.1-0.1,0.3-0.2,0.5-0.3c0,0,0,0,0.1,0
	c0,0,0.1-0.1,0.1-0.1c0.1,0,0.1-0.1,0.2-0.1c0.2-0.1,0.3-0.2,0.4-0.3c0,0,0,0,0,0c0.1,0,0.2-0.1,0.3-0.2c0,0,0,0,0,0
	c1-0.7,2.1-1.4,3.1-2.1c0.1-0.1,0.2-0.2,0.4-0.2c0,0,0,0,0,0c0.8-0.6,1.7-1.1,2.5-1.7c0.1-0.1,0.2-0.1,0.4-0.2c0,0,0,0,0,0
	c0.6-0.4,1.2-0.8,1.8-1.1c0.3-0.2,0.5-0.3,0.8-0.5c0,0,0,0,0,0c0.1-0.1,0.2-0.1,0.3-0.2c0,0,0.1,0,0.1-0.1v0c0.1,0,0.1-0.1,0.2-0.1
	c0,0,0.1-0.1,0.2-0.1v0c0.1,0,0.1-0.1,0.2-0.1c0.1-0.1,0.3-0.2,0.4-0.3c0.1-0.1,0.3-0.2,0.4-0.3c8.9-5.8,16.8-10.9,18.8-12
	c0.1-0.1,0.3-0.1,0.4-0.2c0,0,0,0,0,0c0,0,0.1,0,0.1,0c0.1,0,0.2-0.1,0.3-0.1c0.1,0,0.2-0.1,0.4-0.1c0.1,0,0.1,0,0.2,0
	c0.5,0,0.9,0,1.4,0.2c0.1,0,0.2,0.1,0.4,0.1c0.1,0,0.2,0.1,0.4,0.2c0.2,0.1,0.5,0.3,0.7,0.4c0.1,0.1,0.2,0.2,0.4,0.2
	c0.1,0.1,0.3,0.2,0.4,0.3c0.1,0.1,0.2,0.1,0.3,0.2s0.2,0.1,0.3,0.2c0,0,0,0,0.1,0.1c0.3,0.3,0.6,0.6,1,0.9c0,0,0.1,0,0.1,0.1
	c0.3,0.4,0.7,0.7,1.1,1.1c1.2,1.3,2.4,2.8,3.6,4.2c0.1,0.2,0.3,0.3,0.4,0.5c0.8,0.9,1.6,1.8,2.4,2.6c0,0,0,0,0.1,0.1
	c0.2,0.2,0.5,0.4,0.7,0.6c0.2,0.1,0.3,0.3,0.5,0.4c0.3,0.2,0.6,0.4,0.9,0.6c0,0,0,0,0,0c0,0,0,0,0.1,0c0,0,0.1,0,0.1,0.1
	c0.1,0,0.1,0.1,0.2,0.1c0,0,0,0,0,0c0.1,0.1,0.3,0.2,0.5,0.2c0.3,0.1,0.6,0.2,0.9,0.4c0.1,0.1,0.3,0.1,0.5,0.2
	c0.1,0.1,0.3,0.1,0.5,0.2c0.5,0.2,1.1,0.4,1.8,0.5c0.2,0.1,0.4,0.1,0.7,0.2c0.4,0.1,0.8,0.2,1.3,0.3c0.2,0,0.4,0.1,0.5,0.1
	c0.1,0,0.2,0,0.3,0.1c0.2,0.1,0.5,0.1,0.7,0.2c0,0,0,0,0,0c0.5,0.1,1,0.2,1.5,0.3c0.1,0,0.1,0,0.2,0c0.4,0.1,0.8,0.2,1.2,0.2
	c0.6,0.1,1.2,0.2,1.8,0.3c1,0.2,2,0.3,2.9,0.5c0.6,0.1,1.2,0.2,1.7,0.3c0.8,0.1,1.5,0.2,2.2,0.3c0.1,0,0.1,0,0.2,0
	c0.2,0,0.5,0.1,0.7,0.1c0.2,0,0.5,0.1,0.7,0.1c0.3,0,0.6,0.1,1,0.1c0.6,0.1,1.1,0.1,1.6,0.2c0.4,0,0.7,0.1,1,0.1
	c0.4,0,0.7,0.1,1.1,0.1c0.1,0,0.2,0,0.3,0c0.3,0,0.6,0.1,0.8,0.1c0,0,0.1,0,0.1,0C162.2,26.8,162.5,26.8,162.5,26.8z"/>
<g>
	<polygon class="st8" points="121.3,72.2 121.3,72.2 120.7,72.7 87.2,101 10.8,101 10.8,100.5 87,100.5 120,72.7 120.6,72.2 	"/>
</g>
<g>
	<path class="st2" d="M102.5,79.6c-0.1,0.2-0.3,0.1-0.6,0.2c-0.2,0-0.4,0.1-0.6,0.1c0,0-0.1,0-0.1,0c-0.1,0-0.2,0-0.2,0
		c-0.2,0-0.5,0.2-0.7,0.2c-0.1,0-0.3-0.1-0.5-0.1c-0.2,0-0.6-0.1-0.9-0.2c-0.2,0-0.5,0.1-0.7,0c-0.2,0-0.3-0.1-0.4-0.1
		c-0.2,0-0.5,0.1-0.8,0.1c-0.2,0-0.5-0.1-0.7-0.1c-0.4,0-0.7,0.3-1,0.2c-0.1,0-0.3-0.1-0.4-0.1c-0.3,0-0.5,0.1-0.8,0.1
		c-0.1,0-0.3-0.1-0.4-0.1c-0.2,0-0.5,0.1-0.7,0.1c-0.3,0-0.7-0.1-1-0.1c-0.5,0-1.1,0.1-1.6,0.2c-0.1,0-0.2,0-0.3,0c0,0,0,0-0.1,0
		c-0.3,0-0.6-0.1-0.9-0.2c-0.3,0-0.6,0-0.9,0c-0.3,0-0.5,0-0.8,0c-0.6,0-1.3-0.2-2-0.2c-0.6,0-1.3,0-2-0.1c-0.3,0-0.5-0.1-0.8-0.1
		c-0.3,0-0.5,0-0.7,0c-0.2,0-0.5,0.1-0.7,0.1c-0.3,0-0.7-0.1-1-0.1c-0.1,0-0.2,0-0.3,0.1c-0.2,0.1-0.2,0.2-0.3,0.1
		c-0.3-0.1-0.2-1,0.1-1c0.3,0,0.1,0.4,0.1,0.6c0.2-0.1,0.4-0.1,0.5,0c0.2,0,0.5,0,0.7,0c0.5,0,1.1-0.2,1.6-0.2c0.2,0,0.5,0,0.7,0.1
		c0.8,0.1,1.7,0,2.6,0.1c0.6,0.1,1.3,0.2,1.9,0.1c0.6,0.1,1.1,0,1.6,0.1c0.1,0,0.2,0.1,0.3,0.1c0.1,0,0.2,0,0.4,0c0,0,0,0,0.1,0
		c0.4,0,0.8-0.2,1.3-0.2c0.4,0,0.9,0.1,1.3,0.1c0.2,0,0.5-0.1,0.7-0.1c0.2,0,0.3,0.1,0.5,0.1c0.2,0,0.5-0.1,0.7-0.1
		c0.2,0,0.3,0.1,0.5,0.1c0.3,0,0.7-0.2,1-0.2c0.2,0,0.4,0.1,0.6,0.1c0.3,0,0.6-0.2,0.9-0.1c0.1,0,0.2,0.1,0.4,0.1
		c0.4,0.1,0.8,0,1.2,0c0.1,0,0.2,0.1,0.3,0.1c0.1,0,0.2,0,0.2,0c0.1,0,0.2,0.1,0.4,0.1c0.2,0,0.5-0.2,0.7-0.2c0.1,0,0.2,0.1,0.3,0.1
		c0.1,0,0.2,0,0.3,0c0.1,0,0.1,0,0.2-0.1c0.2,0,0.4-0.1,0.5-0.1C102.4,79.4,102.6,79.4,102.5,79.6z"/>
	<path class="st2" d="M97.2,76.6c0.2,0,0.3,0.1,0.5,0.1c0.3,0,0.7-0.2,1-0.2c0.2,0,0.4,0.1,0.6,0.1c0.3,0,0.6-0.2,0.9-0.1
		c0.1,0,0.3,0.1,0.4,0.1c0.4,0.1,0.8,0,1.2,0c0.1,0,0.2,0.1,0.3,0.1c0.1,0,0.2,0,0.2,0c0.1,0,0.2,0.1,0.4,0.1c0.2,0,0.4-0.2,0.7-0.2
		c0.1,0,0.2,0.1,0.3,0.1c0.1,0,0.3-0.1,0.5-0.1c0.2,0,0.4-0.1,0.6-0.1c0.1,0,0.3,0.1,0.2,0.3c-0.1,0.2-0.3,0.1-0.6,0.2
		c-0.2,0-0.4,0.1-0.6,0.1c-0.1,0-0.3-0.1-0.3-0.1c-0.2,0-0.5,0.2-0.7,0.2c-0.1,0-0.3-0.1-0.4-0.1c-0.2,0-0.6-0.1-0.9-0.2
		c-0.2,0-0.5,0.1-0.7,0c-0.1,0-0.3-0.1-0.4-0.1c-0.2,0-0.5,0.1-0.8,0.1c-0.2,0-0.4-0.1-0.7-0.1c-0.4,0-0.7,0.3-1,0.2
		c-0.1,0-0.3-0.1-0.4-0.1L97.2,76.6z"/>
	<path class="st2" d="M77,82.1c0.2-0.6,0.9-0.1,1.5,0c0.6,0.1,1.1-0.4,1.6-0.2c0.2,0,0.3,0.2,0.4,0.2c0.1,0,0.5-0.2,0.6-0.3
		c0.1,0,0.3,0,0.4-0.1c0.2,0,0.3-0.1,0.4-0.1c0.4,0,0.8,0.2,1.3,0.1c0.5,0,1-0.1,1.6-0.1c0.1,0,0.2,0.1,0.3,0.1c0.3,0,0.7-0.1,1,0
		c0.2,0,0.3,0.1,0.5,0.2c0.2,0,0.5,0,0.7,0c0.4,0,0.7,0.1,1.1,0.1c0.3,0,0.5,0,0.8-0.1c0.1,0,0.3,0,0.4-0.1c0.1,0,0.2-0.1,0.4-0.1
		c0.2,0,0.5,0.1,0.7,0.1c0.3,0,0.8-0.3,1.2-0.2c0.3,0,0.5,0.1,0.8,0.1c0.5,0,0.9-0.2,1.4-0.1c0.3,0.1,0.6,0.2,0.8,0.2
		c0.4,0,0.8-0.2,1.1-0.2c0.2,0,0.3,0.1,0.5,0.1c0.3,0,0.7-0.2,1-0.2c0.2,0,0.3,0,0.5,0c0.2,0,0.3-0.1,0.4,0c0.4,0.1,0.7,0.2,1.1,0
		c0.3,0.1,0.7,0.1,0.6,0.4c-0.1,0.2-0.3,0.1-0.5,0c-0.3,0-0.5,0.1-0.8,0.1c-0.1,0-0.3-0.1-0.4-0.1c-0.1,0-0.3,0-0.4,0
		c-0.4,0-0.6,0-0.9,0.1c-0.2,0-0.4,0.1-0.5,0.1c-0.2,0-0.4-0.1-0.6-0.2c-0.3,0-0.6,0.1-1,0.2c-0.3,0-0.5-0.1-0.9-0.2
		c-0.4-0.1-0.9,0.2-1.4,0.1c-0.3,0-0.6-0.1-0.9-0.1c-0.4,0-0.7,0.2-1.1,0.2c-0.3,0-0.5-0.1-0.7-0.1c-0.2,0-0.5,0.1-0.7,0.2
		c-0.1,0-0.3,0-0.4,0c-0.4,0-0.9,0-1.4-0.1c-0.2,0-0.5,0-0.7,0c-0.2,0-0.4-0.1-0.6-0.2c-0.3,0-0.6,0-0.9,0C85.1,82,85,82,84.9,82
		c-0.1,0-0.2,0-0.4,0c-0.1,0-0.2,0-0.3,0c-0.5,0-1,0.1-1.5,0.1c-0.2,0-0.5-0.1-0.7-0.1c-0.2,0-0.6,0.1-0.8,0.2
		c-0.3,0.1-0.6,0.3-0.8,0.3c-0.1,0-0.2-0.2-0.4-0.2c-0.4-0.1-1,0.3-1.6,0.2c-0.3,0-0.6-0.2-0.9-0.3C77.4,82.1,77.2,82.2,77,82.1z"/>
	<path class="st2" d="M71,87.1c0.2-0.6,0.9-0.1,1.5,0c0.6,0.1,1.1-0.4,1.6-0.2c0.2,0,0.3,0.2,0.4,0.2c0.1,0,0.5-0.2,0.6-0.3
		c0.1,0,0.3,0,0.4-0.1c0.2,0,0.3-0.1,0.4-0.1c0.4,0,0.8,0.2,1.3,0.1c0.5,0,1-0.1,1.6-0.1c0.1,0,0.2,0.1,0.3,0.1c0.3,0,0.7-0.1,1,0
		c0.2,0,0.3,0.1,0.5,0.2c0.2,0,0.5,0,0.7,0c0.4,0,0.7,0.1,1.1,0.1c0.3,0,0.5,0,0.8-0.1c0.1,0,0.3,0,0.4-0.1c0.1,0,0.2-0.1,0.4-0.1
		c0.2,0,0.5,0.1,0.7,0.1c0.3,0,0.8-0.3,1.2-0.2c0.3,0,0.5,0.1,0.8,0.1c0.5,0,0.9-0.2,1.4-0.1c0.3,0.1,0.6,0.2,0.8,0.2
		c0.4,0,0.8-0.2,1.1-0.2c0.2,0,0.3,0.1,0.5,0.1c0.3,0,0.7-0.2,1-0.2c0.2,0,0.3,0,0.5,0c0.2,0,0.3-0.1,0.4,0c0.4,0.1,0.7,0.2,1.1,0
		c0.3,0.1,0.7,0.1,0.6,0.4c-0.1,0.2-0.3,0.1-0.5,0c-0.3,0-0.5,0.1-0.8,0.1c-0.1,0-0.3-0.1-0.4-0.1c-0.1,0-0.3,0-0.4,0
		c-0.4,0-0.6,0-0.9,0.1c-0.2,0-0.4,0.1-0.5,0.1c-0.2,0-0.4-0.1-0.6-0.2c-0.3,0-0.6,0.1-1,0.2c-0.3,0-0.5-0.1-0.9-0.2
		c-0.4-0.1-0.9,0.2-1.4,0.1c-0.3,0-0.6-0.1-0.9-0.1c-0.4,0-0.7,0.2-1.1,0.2c-0.3,0-0.5-0.1-0.7-0.1c-0.2,0-0.5,0.1-0.7,0.2
		c-0.1,0-0.3,0-0.4,0c-0.4,0-0.9,0-1.4-0.1c-0.2,0-0.5,0-0.7,0c-0.2,0-0.4-0.1-0.6-0.2c-0.3,0-0.6,0-0.9,0c-0.1,0-0.2-0.1-0.3-0.1
		c-0.1,0-0.2,0-0.4,0c-0.1,0-0.2,0-0.3,0c-0.5,0-1,0.1-1.5,0.1c-0.2,0-0.5-0.1-0.7-0.1c-0.2,0-0.6,0.1-0.8,0.2
		c-0.3,0.1-0.6,0.3-0.8,0.3c-0.1,0-0.2-0.2-0.4-0.2c-0.4-0.1-1,0.3-1.6,0.2c-0.3,0-0.6-0.2-0.9-0.3C71.4,87.1,71.2,87.2,71,87.1z"/>
	<path class="st2" d="M96.6,84.2c0.2,0.1,0.3,0.1,0.2,0.3c-0.1,0.2-0.3,0.1-0.6,0c-0.3,0-0.6,0-0.7,0c-0.1,0-0.3-0.1-0.4-0.1
		c-0.4-0.1-0.8,0.1-1.3,0.1c-0.3,0-0.6,0.2-0.9,0.2c-0.4,0.1-0.9,0-1.4,0c-0.4,0-0.6,0-1.1-0.1c-0.6-0.1-1.1,0-1.6,0
		c-0.2,0-0.5-0.1-0.6-0.1c-0.4,0-0.7,0.2-1,0.3c-0.5,0.1-1.1,0-1.8,0c-0.3,0-0.6,0-1,0c-0.2,0-0.4,0.1-0.6,0.1c-0.3,0-0.6-0.1-1-0.1
		c-0.6,0-1.2-0.1-1.8-0.1c-0.3,0-0.5,0.1-0.8,0.1c-0.2,0-0.3,0-0.5,0c-0.3,0-0.7,0-1.1,0c-0.2,0-0.5,0.1-0.7,0
		c-0.3,0-0.5-0.1-0.7-0.1c-0.3,0-0.6,0.1-0.8,0.1c-0.3,0.1-0.6,0.2-0.8,0.2c-0.2,0-0.5-0.2-0.7-0.2c-0.4,0-0.7,0.3-1.1,0.2
		c0,0-0.4-0.1-0.4-0.3c0.1-0.2,0.3,0,0.5,0c0.2,0,0.3-0.1,0.5-0.2c0.2,0,0.3-0.1,0.5-0.1c0.2,0,0.5,0.2,0.7,0.2
		c0.2,0,0.4-0.1,0.6-0.2c0.3-0.1,0.7-0.1,0.9-0.1c0.2,0,0.5,0.1,0.8,0.1c0.2,0,0.4-0.1,0.7-0.1c0.3,0,0.7,0,1,0c0.2,0,0.4,0.1,0.5,0
		c0.3,0,0.6-0.1,0.8-0.1c0.5,0,1.2,0,1.8,0.1c0.3,0,0.6,0.1,1,0.1c0.3,0,0.5,0,0.8,0c0.4,0,0.6,0,1,0c0.4,0,0.8,0,1.1,0
		c0.4,0,0.8-0.3,1.3-0.3c0.2,0,0.4,0.1,0.7,0.1c0.3,0,0.6,0,0.8,0c0.2,0,0.5,0,0.8,0c0.4,0.1,0.8,0.1,1.2,0.1c0.5,0,0.8,0.1,1.3,0
		c0.2,0,0.4-0.1,0.6-0.1c0.5-0.1,1.2-0.3,1.7-0.3c0.2,0,0.4,0.1,0.5,0.1c0.2,0,0.4-0.1,0.7,0C96.3,84.1,96.5,84.1,96.6,84.2z"/>
</g>
<path class="st5" d="M83.7,30.6C83.7,30.6,83.7,30.6,83.7,30.6l-10.1,6.7C76.3,35.5,79.8,33.2,83.7,30.6
	C83.7,30.6,83.7,30.6,83.7,30.6z"/>
<path class="st5" d="M71.9,34"/>
<path class="st1" d="M104.9,61.8l-1.6,1.9v0l-9,10.9l-4.1,4.9L90,79.9l-1.7,2L88,82.3l-1.8,2.2l-0.3,0.4l-1.6,1.9L84,87.1l-2.9,3.6
	l0,0c0,0-19.9,1.1-41.9,4.5c-1.4,0.2-2.9,0.5-4.4,0.7c-1.1,0.2-2.3,0.4-3.4,0.6c-1.3,0.2-2.7,0.5-4,0.7c-1.9,0.3-3.7,0.7-5.6,1.1
	c-3.1,0.7-6.1,1.4-9.1,2.1c0,0,0,0,0,0s0,0,0,0c0,0-0.1,0-0.1,0c-0.1,0-0.2,0-0.3,0.1c-0.2,0.1-0.4,0.1-0.6,0.2l-0.2,0.1l0.4-0.2
	l0.2-0.1l0,0l0,0l1-0.5l52.6-28.8l9.2-5h0l1-0.5l0,0c0,0,0,0,0,0l10.4-5.7l10-2.2l1-0.2l-0.3,0.4l-0.3,0.3c0,0,0.1,0,0.1,0
	c2.5,0.8,5.1,1.8,7.4,3.2C104.5,61.5,104.7,61.7,104.9,61.8z"/>
<path class="st1" d="M106.3,56.6c-0.1,0-0.1,0.1-0.2,0c0-0.1,0-0.2,0-0.3C106.3,56.4,106.3,56.5,106.3,56.6z"/>
<g>
	<path class="st2" d="M75.2,65.9C75,66,75,66.1,74.9,66.1c-0.3,0-0.4-0.9-0.1-1c0.3,0,0.2,0.3,0.3,0.5c0.3-0.2,0.8-0.2,1.3-0.3
		c0.5-0.1,1-0.4,1.5-0.5c0.2-0.1,0.5-0.1,0.7-0.1c0.8-0.1,1.7-0.4,2.5-0.5c0.6-0.1,1.3-0.1,1.9-0.4c0.6-0.1,1.1-0.3,1.6-0.3
		c0.1,0,0.2,0,0.3,0c0.5,0,1-0.4,1.6-0.6c0.4-0.1,0.9-0.1,1.2-0.2c0.2-0.1,0.4-0.2,0.7-0.2c0.2,0,0.3,0,0.5,0c0.2,0,0.4-0.2,0.7-0.3
		c0.2,0,0.3,0,0.5,0c0.3,0,0.6-0.4,0.9-0.5c0.2,0,0.4,0,0.6-0.1c0.3-0.1,0.6-0.3,0.8-0.3c0.1,0,0.3,0,0.4,0c0.4,0,0.8-0.2,1.2-0.2
		c0.1,0,0.2,0,0.3,0c0.1,0,0.2,0,0.2-0.1c0.1,0,0.3,0,0.4,0c0.2,0,0.4-0.3,0.7-0.3c0.1,0,0.2,0,0.3,0c0.1,0,0.3-0.1,0.4-0.2
		c0.2-0.1,0.4-0.2,0.5-0.2c0.1,0,0.3,0,0.3,0.2c0,0.2-0.3,0.2-0.5,0.3c-0.2,0.1-0.4,0.2-0.6,0.3c-0.1,0-0.3,0-0.4,0
		c-0.2,0-0.4,0.3-0.6,0.3c-0.1,0-0.3,0-0.5,0c-0.2,0-0.6,0-1,0.1c-0.2,0-0.5,0.2-0.7,0.2c-0.2,0-0.3,0-0.4,0c-0.2,0-0.5,0.3-0.8,0.3
		c-0.2,0.1-0.5,0-0.7,0.1c-0.4,0.1-0.6,0.4-1,0.5c-0.1,0-0.3,0-0.4,0c-0.3,0-0.5,0.2-0.8,0.3c-0.1,0-0.3,0-0.4,0
		c-0.2,0-0.5,0.2-0.7,0.2c-0.3,0.1-0.7,0.1-1,0.2c-0.5,0.1-1,0.4-1.5,0.5c-0.3,0.1-0.8,0-1.2,0.1c-0.3,0-0.6,0.2-0.9,0.2
		c-0.3,0.1-0.5,0.1-0.8,0.2c-0.6,0.1-1.3,0.2-2,0.3c-0.6,0.1-1.3,0.3-1.9,0.4c-0.3,0-0.5,0-0.8,0.1c-0.2,0.1-0.5,0.1-0.7,0.2
		c-0.2,0.1-0.5,0.2-0.7,0.2C76,65.8,75.5,65.7,75.2,65.9z"/>
	<path class="st2" d="M72.9,69.1c0-0.6,0.9-0.3,1.5-0.3c0.6-0.1,1-0.6,1.5-0.6c0.2,0,0.3,0.1,0.4,0.1c0.1,0,0.4-0.3,0.6-0.4
		c0.1-0.1,0.3-0.1,0.4-0.2c0.1-0.1,0.3-0.2,0.4-0.2c0.4-0.1,0.8,0,1.3-0.2c0.5-0.2,1-0.4,1.5-0.5c0.1,0,0.2,0,0.3,0
		c0.3,0,0.6-0.2,0.9-0.2c0.2,0,0.4,0.1,0.6,0c0.2,0,0.4-0.2,0.7-0.2c0.4,0,0.7-0.1,1.1-0.1c0.3,0,0.5-0.2,0.7-0.2
		c0.1,0,0.2-0.1,0.4-0.2c0.1-0.1,0.2-0.1,0.3-0.2c0.2-0.1,0.5,0,0.7,0c0.3,0,0.7-0.4,1.1-0.5c0.3,0,0.5,0,0.8,0
		c0.5-0.1,0.8-0.4,1.3-0.4c0.3,0,0.6,0.1,0.8,0c0.4-0.1,0.7-0.4,1.1-0.4c0.2,0,0.3,0.1,0.5,0c0.3,0,0.6-0.3,0.9-0.4
		c0.1-0.1,0.3,0,0.5-0.1c0.2,0,0.3-0.1,0.4-0.1c0.4,0,0.7,0.1,1.1-0.2c0.3,0,0.7-0.1,0.7,0.3c0,0.3-0.3,0.1-0.5,0.2
		c-0.3,0-0.5,0.2-0.8,0.2c-0.1,0-0.3,0-0.4,0c-0.1,0-0.2,0.1-0.4,0.1c-0.4,0.1-0.6,0.1-0.9,0.3c-0.2,0.1-0.3,0.2-0.5,0.2
		c-0.2,0-0.4,0-0.6,0c-0.3,0-0.6,0.3-0.9,0.4c-0.3,0.1-0.5,0-1,0c-0.4,0-0.8,0.4-1.3,0.4c-0.3,0-0.6,0-0.9,0.1
		c-0.4,0.1-0.7,0.4-1,0.4c-0.2,0-0.5,0-0.7,0c-0.2,0.1-0.4,0.2-0.7,0.3c-0.1,0-0.3,0.1-0.4,0.1c-0.4,0.1-0.9,0.2-1.4,0.2
		c-0.2,0-0.5,0.2-0.7,0.2c-0.2,0-0.4,0-0.6,0c-0.3,0-0.6,0.2-0.9,0.2c-0.1,0-0.2,0-0.3,0c-0.1,0-0.2,0.1-0.4,0.1c-0.1,0-0.2,0-0.3,0
		c-0.5,0.1-0.9,0.4-1.4,0.4c-0.2,0-0.5,0-0.7,0c-0.2,0-0.6,0.3-0.8,0.4c-0.2,0.1-0.5,0.4-0.7,0.4c-0.1,0-0.2-0.1-0.4-0.1
		c-0.5,0-0.9,0.5-1.5,0.6c-0.3,0-0.6-0.1-0.9-0.1C73.3,69,73.2,69.2,72.9,69.1z"/>
	<path class="st2" d="M68.2,75.3c0-0.6,0.9-0.3,1.5-0.3c0.6-0.1,1-0.6,1.5-0.6c0.2,0,0.3,0.1,0.4,0.1c0.1,0,0.4-0.3,0.6-0.4
		c0.1-0.1,0.3-0.1,0.4-0.2c0.1-0.1,0.3-0.2,0.4-0.2c0.4-0.1,0.8,0,1.3-0.2c0.5-0.2,1-0.4,1.5-0.5c0.1,0,0.2,0,0.3,0
		c0.3,0,0.6-0.2,0.9-0.2c0.2,0,0.4,0.1,0.6,0c0.2,0,0.4-0.2,0.7-0.2c0.4,0,0.7-0.1,1.1-0.1c0.3,0,0.5-0.2,0.7-0.2
		c0.1,0,0.2-0.1,0.4-0.2c0.1-0.1,0.2-0.1,0.3-0.2c0.2-0.1,0.5,0,0.7,0c0.3,0,0.7-0.4,1.1-0.5c0.3,0,0.5,0,0.8,0
		c0.5-0.1,0.8-0.4,1.3-0.4c0.3,0,0.6,0.1,0.8,0c0.4-0.1,0.7-0.4,1.1-0.4c0.2,0,0.3,0.1,0.5,0c0.3,0,0.6-0.3,0.9-0.4
		c0.1-0.1,0.3,0,0.5-0.1c0.2,0,0.3-0.1,0.4-0.1c0.4,0,0.7,0.1,1.1-0.2c0.3,0,0.7-0.1,0.7,0.3c0,0.3-0.3,0.1-0.5,0.2
		c-0.3,0-0.5,0.2-0.8,0.2c-0.1,0-0.3,0-0.4,0c-0.1,0-0.2,0.1-0.4,0.1c-0.4,0.1-0.6,0.1-0.9,0.3c-0.2,0.1-0.3,0.2-0.5,0.2
		c-0.2,0-0.4,0-0.6,0c-0.3,0-0.6,0.3-0.9,0.4c-0.3,0.1-0.5,0-1,0c-0.4,0-0.8,0.4-1.3,0.4c-0.3,0-0.6,0-0.9,0.1
		c-0.4,0.1-0.7,0.4-1,0.4c-0.2,0-0.5,0-0.7,0c-0.2,0.1-0.4,0.2-0.7,0.3c-0.1,0-0.3,0.1-0.4,0.1c-0.4,0.1-0.9,0.2-1.4,0.2
		c-0.2,0-0.5,0.2-0.7,0.2c-0.2,0-0.4,0-0.6,0c-0.3,0-0.6,0.2-0.9,0.2c-0.1,0-0.2,0-0.3,0c-0.1,0-0.2,0.1-0.4,0.1c-0.1,0-0.2,0-0.3,0
		c-0.5,0.1-0.9,0.4-1.4,0.4c-0.2,0-0.5,0-0.7,0c-0.2,0-0.6,0.3-0.8,0.4c-0.2,0.1-0.5,0.4-0.7,0.4c-0.1,0-0.2-0.1-0.4-0.1
		c-0.5,0-0.9,0.5-1.5,0.6c-0.3,0-0.6-0.1-0.9-0.1C68.6,75.3,68.4,75.5,68.2,75.3z"/>
	<path class="st2" d="M65.6,78.9c0-0.6,0.9-0.3,1.5-0.3c0.6-0.1,1-0.6,1.5-0.6c0.2,0,0.3,0.1,0.4,0.1c0.1,0,0.4-0.3,0.6-0.4
		c0.1-0.1,0.3-0.1,0.4-0.2c0.1-0.1,0.3-0.2,0.4-0.2c0.4-0.1,0.8,0,1.3-0.2c0.5-0.2,1-0.4,1.5-0.5c0.1,0,0.2,0,0.3,0
		c0.3,0,0.6-0.2,0.9-0.2c0.2,0,0.4,0.1,0.6,0c0.2,0,0.4-0.2,0.7-0.2c0.4,0,0.7-0.1,1.1-0.1c0.3,0,0.5-0.2,0.7-0.2
		c0.1,0,0.2-0.1,0.4-0.2c0.1-0.1,0.2-0.1,0.3-0.2c0.2-0.1,0.5,0,0.7,0c0.3,0,0.7-0.4,1.1-0.5c0.3,0,0.5,0,0.8,0
		c0.5-0.1,0.8-0.4,1.3-0.4c0.3,0,0.6,0.1,0.8,0c0.4-0.1,0.7-0.4,1.1-0.4c0.2,0,0.3,0.1,0.5,0c0.3,0,0.6-0.3,0.9-0.4
		c0.1-0.1,0.3,0,0.5-0.1c0.2,0,0.3-0.1,0.4-0.1c0.4,0,0.7,0.1,1.1-0.2c0.3,0,0.7-0.1,0.7,0.3c0,0.3-0.3,0.1-0.5,0.2
		c-0.3,0-0.5,0.2-0.8,0.2c-0.1,0-0.3,0-0.4,0c-0.1,0-0.2,0.1-0.4,0.1c-0.4,0.1-0.6,0.1-0.9,0.3c-0.2,0.1-0.3,0.2-0.5,0.2
		c-0.2,0-0.4,0-0.6,0c-0.3,0-0.6,0.3-0.9,0.4c-0.3,0.1-0.5,0-1,0c-0.4,0-0.8,0.4-1.3,0.4c-0.3,0-0.6,0-0.9,0.1
		c-0.4,0.1-0.7,0.4-1,0.4c-0.2,0-0.5,0-0.7,0c-0.2,0.1-0.4,0.2-0.7,0.3c-0.1,0-0.3,0.1-0.4,0.1c-0.4,0.1-0.9,0.2-1.4,0.2
		c-0.2,0-0.5,0.2-0.7,0.2c-0.2,0-0.4,0-0.6,0c-0.3,0-0.6,0.2-0.9,0.2c-0.1,0-0.2,0-0.3,0c-0.1,0-0.2,0.1-0.4,0.1c-0.1,0-0.2,0-0.3,0
		c-0.5,0.1-0.9,0.4-1.4,0.4c-0.2,0-0.5,0-0.7,0c-0.2,0-0.6,0.3-0.8,0.4c-0.2,0.1-0.5,0.4-0.7,0.4c-0.1,0-0.2-0.1-0.4-0.1
		c-0.5,0-0.9,0.5-1.5,0.6c-0.3,0-0.6-0.1-0.9-0.1C66.1,78.9,65.9,79,65.6,78.9z"/>
	<path class="st2" d="M92.5,66.6c0.2,0,0.3,0,0.2,0.2c0,0.2-0.2,0.1-0.6,0.1c-0.3,0-0.6,0.2-0.7,0.2c-0.1,0-0.3,0-0.4,0
		c-0.4,0-0.8,0.3-1.2,0.4c-0.3,0.1-0.5,0.3-0.8,0.4c-0.4,0.2-0.8,0.2-1.4,0.3c-0.4,0.1-0.6,0.1-1.1,0.2c-0.6,0-1.1,0.3-1.6,0.4
		c-0.2,0-0.5,0-0.7,0c-0.3,0.1-0.6,0.4-0.9,0.5c-0.5,0.2-1.1,0.3-1.7,0.4c-0.3,0.1-0.6,0.2-0.9,0.2c-0.2,0-0.4,0.2-0.6,0.2
		c-0.3,0.1-0.7,0-1,0.1c-0.6,0.1-1.2,0.2-1.8,0.3c-0.3,0.1-0.5,0.2-0.7,0.3c-0.2,0-0.3,0-0.5,0.1c-0.3,0.1-0.7,0.2-1,0.3
		c-0.2,0.1-0.5,0.2-0.7,0.2c-0.3,0-0.5,0-0.7,0c-0.3,0.1-0.5,0.2-0.8,0.3c-0.3,0.1-0.5,0.3-0.7,0.3c-0.2,0-0.6,0-0.7,0
		c-0.4,0-0.6,0.4-1,0.4c0,0-0.5,0-0.5-0.2c0-0.2,0.3-0.1,0.5-0.1c0.2,0,0.3-0.2,0.4-0.3c0.1-0.1,0.3-0.2,0.5-0.2c0.2,0,0.5,0,0.8,0
		c0.2,0,0.3-0.2,0.5-0.3c0.3-0.1,0.6-0.3,0.9-0.4c0.2-0.1,0.5,0,0.8-0.1c0.2,0,0.4-0.2,0.7-0.2c0.3-0.1,0.7-0.2,1-0.3
		c0.2,0,0.4,0,0.5-0.1c0.3-0.1,0.5-0.2,0.8-0.3c0.5-0.2,1.2-0.3,1.8-0.4c0.3,0,0.6,0,1-0.1c0.3,0,0.5-0.1,0.8-0.2
		c0.4-0.1,0.6-0.2,1-0.2c0.4,0,0.8-0.2,1.1-0.3c0.4-0.1,0.8-0.5,1.2-0.6c0.2-0.1,0.4,0,0.7,0c0.3,0,0.6-0.1,0.8-0.2
		c0.2-0.1,0.4-0.2,0.8-0.2c0.4,0,0.8-0.1,1.2-0.2c0.5-0.1,0.8-0.1,1.2-0.3c0.2-0.1,0.3-0.2,0.5-0.3c0.4-0.2,1-0.6,1.6-0.7
		c0.2,0,0.4,0,0.6,0c0.2,0,0.4-0.2,0.7-0.2C92.2,66.6,92.3,66.6,92.5,66.6z"/>
</g>
<polygon class="st7" points="77.9,58.3 76,60.7 69.9,68.5 69.1,68.7 49,74.9 55.1,67.2 57,64.7 57.1,64.7 "/>
<path class="st9" d="M59.7,67c0.2,0,0.3,0,0.5,0c0.3,0,0.6-0.4,0.9-0.5c0.2,0,0.4,0,0.6-0.1c0.3-0.1,0.6-0.3,0.8-0.4
	c0.1,0,0.3,0,0.4,0c0.4,0,0.8-0.2,1.2-0.3c0.1,0,0.2,0,0.3,0c0.1,0,0.2-0.1,0.2-0.1c0.1,0,0.3,0,0.4,0c0.2,0,0.4-0.3,0.7-0.3
	c0.1,0,0.2,0,0.3,0c0.1,0,0.3-0.1,0.4-0.2c0.2-0.1,0.4-0.2,0.5-0.2c0.1,0,0.3,0,0.3,0.2c0,0.2-0.3,0.2-0.5,0.3
	c-0.2,0.1-0.4,0.2-0.5,0.3c-0.1,0-0.3,0-0.3,0c-0.2,0.1-0.4,0.3-0.6,0.3c-0.1,0-0.3,0-0.5,0c-0.2,0-0.6,0-1,0.1
	c-0.2,0-0.5,0.2-0.7,0.2c-0.2,0-0.3,0-0.4,0c-0.2,0-0.5,0.3-0.8,0.3c-0.2,0.1-0.5,0-0.7,0.1c-0.4,0.1-0.6,0.4-0.9,0.5
	c-0.1,0-0.3,0-0.4,0L59.7,67z"/>
<g>
	<g>
		<g>
			<g>
				<rect x="8.7" y="101.6" class="st8" width="78.9" height="0.5"/>
			</g>
			<g>
				<rect x="8.7" y="102.6" class="st8" width="78.9" height="0.5"/>
			</g>
		</g>
		<g>
			<g>
				<rect x="8.7" y="104.1" class="st8" width="78.9" height="0.5"/>
			</g>
			<g>
				<rect x="8.7" y="105.6" class="st8" width="78.9" height="0.5"/>
			</g>
		</g>
	</g>
	<g>
		<g>
			<g>
				<polyline class="st8" points="87.6,106.6 87.6,107.1 8.7,107.1 8.7,106.6 				"/>
			</g>
		</g>
		<g>
			<g>
				<rect x="8.7" y="107.6" class="st8" width="78.9" height="0.5"/>
			</g>
			<g>
				<rect x="8.7" y="109.1" class="st8" width="78.9" height="0.5"/>
			</g>
		</g>
		<g>
			<g>
				<rect x="8.7" y="110.6" class="st8" width="78.9" height="0.5"/>
			</g>
		</g>
	</g>
</g>
<path class="st10" d="M89.1,114.6l-0.2-3h-1.4H11.9c0,0-2.3,0.2-2.3-2.6v-1.6c0,0,0-0.8,0-2.1v-1.6c0-2.9,2.9-3.2,2.9-3.2L45,67.8
	v-3.3L11.2,97.7c-1.3,0-2.2,0.4-2.8,0.9c-0.1,0.1-0.1,0.1-0.2,0.1c0,0,0,0,0,0c0,0-0.1,0.1-0.1,0.1c-1.2,1.2-5.7,6.6-0.5,14.2
	c0.6,1,1.6,1.8,3.6,1.8h76.2h1.3L89.1,114.6z"/>
<g>
	<polygon class="st8" points="87.2,101.7 121.3,73 121.3,73.6 87.5,102.1 	"/>
	<polygon class="st8" points="87.2,102.7 121.1,74.2 121.1,74.8 87.5,103.1 	"/>
	<polygon class="st8" points="87.2,104.2 121.3,75.5 121.3,76.1 87.5,104.6 	"/>
	<polygon class="st8" points="87.2,105.7 121.4,76.9 121.4,77.5 87.5,106.1 	"/>
	<polygon class="st8" points="87.2,106.7 121.3,77.9 121.3,78.6 87.5,107.1 	"/>
	<polygon class="st8" points="87.2,107.7 121.1,79.2 121.1,79.8 87.5,108.1 	"/>
	<polygon class="st8" points="87.2,109.2 121.3,80.4 121.3,81.1 87.5,109.6 	"/>
	<polygon class="st8" points="87.2,110.7 121.4,81.8 121.3,82.6 87.6,111 	"/>
</g>
<path class="st10" d="M91.5,51.7c-0.1-0.1,0-0.4,0.2-0.4C91.6,51.5,91.7,51.7,91.5,51.7z"/>
<path class="st10" d="M96,52.3c0,0.1,0,0.2,0,0.3c-0.1,0-0.2,0-0.3,0C95.7,52.4,95.8,52.3,96,52.3z"/>
<path class="st10" d="M96.3,57.6l1-0.2l-0.3,0.4l-0.3,0.3c0,0,0.1,0,0.1,0l-2.5,3.2L94,61.8l-1.9,2.5l-0.4,0.5l-1.9,2.4l0,0
	l-0.4,0.5l-0.2,0.3v0l-2.1,2.7L86.8,71l-2.5,3.2L84,74.6l-5.6,7.1l-30.6,8.7l0,0h0l-32.8,9.3l-0.1,0l0,0l-0.1,0l0,0l-2.2,0.6
	l-0.9,0.3l-0.2,0.1l-0.9,0.2H7.5l0.9-2.4l36.2-33.9l9.7-3l27.3-8.5h0c1.5,1,3,1.8,4.4,2.1C88.9,55.9,92.5,56.6,96.3,57.6z"/>
<path class="st10" d="M96,50.4c0,0.5,0.5,0.7,0.4,1.2C96.1,51.5,95.7,50.6,96,50.4z"/>
<path class="st10" d="M97.8,51.8c0,0.1-0.1,0.2-0.1,0.2c0-0.1,0-0.1,0-0.2C97.7,51.8,97.7,51.8,97.8,51.8z"/>
<path class="st10" d="M98.3,52c-0.1,0.2-0.2,0.4-0.3,0.7c-0.1,0-0.1,0.1-0.2,0C97.7,52.4,97.9,51.9,98.3,52z"/>
<path class="st10" d="M107,45.2L107,45.2l-1.1,1.4l-4.5,5.7l-0.1,0.1l-0.3,0.3c0,0-0.1,0-0.1,0c-0.1,0-0.1,0-0.2,0
	c-0.1-0.1,0.1-0.4,0-0.6c-0.1-0.1-0.4-0.1-0.5-0.3c-0.1,0-0.3,0.1-0.4,0.2c-0.3-0.3-0.4-0.8-0.9-0.7c-0.5-0.4-0.5-1.3-1.2-1.5
	c0-0.2,0.2-0.3,0.2-0.4c-0.1-0.2-0.3-0.2-0.6-0.3c-0.1-0.2,0.1-0.3,0.1-0.4c-0.1,0-0.3-0.1-0.3,0c0,0.1,0,0.3-0.1,0.4
	c-0.3-0.1,0-0.3-0.1-0.4c-0.2,0-0.3-0.3-0.5-0.2c0,0.7,1,0.8,0.6,1.6c0,0.1,0.2,0.1,0.1,0.3c-0.4,0.1-0.3-0.5-0.7-0.6
	c-0.2,0-0.3,0.2-0.4,0.3c-0.4-0.1-0.1-0.7-0.2-1c-0.4-0.2-0.4,0.2-0.5,0.4c-0.2,0-0.4,0-0.5,0.3c0.3,0.5,0.2,1.2,0.2,1.8
	c-0.2,0.1-0.3,0.2-0.4,0.4c-0.1-0.1-0.2-0.2-0.1-0.4c0.1-0.1,0.3,0.1,0.4,0c0.1-0.7-0.2-1.1,0-1.8c-0.1-0.1,0-0.2-0.2-0.2
	c-0.2,0.4-0.7,0.3-1,0.5c0.1,0.8-0.1,2.1-0.5,2.9c-0.1,0-0.1,0-0.1-0.1c0-0.1,0.1-0.3-0.1-0.4c-0.8,0-0.3-1.4,0.3-0.9
	c0-0.1,0.1-0.1,0.1-0.1c-0.1-0.5,0.2-1.3-0.2-1.5c-0.3-0.1-0.3,0.1-0.5,0.2c-0.2,0.2-0.6,0-0.8,0.2c-0.1-0.1-0.1-0.3-0.2-0.4
	c0,0,0,0,0,0l0.7-0.2l0.3-0.1l13-4.1L107,45.2L107,45.2z"/>
<polygon class="st10" points="122.1,82.5 122.1,86.8 89.1,114.6 88.7,114.9 87.5,114.9 85.9,113 87.5,111.6 "/>
<path class="st11" d="M91.5,51.7c-0.1-0.1,0-0.4,0.2-0.4C91.6,51.5,91.7,51.7,91.5,51.7z"/>
<path class="st11" d="M96,52.3c0,0.1,0,0.2,0,0.3c-0.1,0-0.2,0-0.3,0C95.7,52.4,95.8,52.3,96,52.3z"/>
<polygon class="st11" points="96.9,57.8 96.7,58.2 96.7,58.2 "/>
<path class="st11" d="M96,50.4c0,0.5,0.5,0.7,0.4,1.2C96.1,51.5,95.7,50.6,96,50.4z"/>
<path class="st11" d="M97.8,51.8c0,0.1-0.1,0.2-0.1,0.2c0-0.1,0-0.1,0-0.2C97.7,51.8,97.7,51.8,97.8,51.8z"/>
<path class="st11" d="M98.3,52c-0.1,0.2-0.2,0.4-0.3,0.7c-0.1,0-0.1,0.1-0.2,0C97.7,52.4,97.9,51.9,98.3,52z"/>
<path class="st5" d="M105.3,61.3l-0.4,0.5c-0.2-0.1-0.5-0.3-0.7-0.4c-2.4-1.4-4.9-2.4-7.4-3.2L97,58l0.1-0.1c0,0,0,0,0,0
	c0.2,0,0.3,0.1,0.5,0.2C100.2,58.8,102.9,59.9,105.3,61.3z"/>
<path class="st12" d="M101.9,52.4l-0.1,0.2l-3,3.9l-0.3,0.4l-0.4,0.5l-0.3,0.4L97.6,58c-0.2-0.1-0.3-0.1-0.5-0.2c0,0,0,0,0,0
	l0.4-0.5l0.3-0.3l3.3-4.2c0.1,0,0.2,0,0.3,0.1c0.2-0.2,0.1-0.3-0.1-0.5l0.1-0.1c0.1,0,0.3-0.1,0.5-0.1
	C101.9,52.3,101.9,52.4,101.9,52.4z"/>
<path class="st13" d="M106.4,46.7L106.4,46.7l-0.3,0.4h0c-0.1,0.1-0.2,0.1-0.3,0.3c0,0,0,0.1,0,0.1l-0.1,0.1l-3.2,4l-0.1,0.1
	l-0.3,0.3l-0.3,0.3c0-0.1-0.1-0.1-0.1-0.2c-0.2,0-0.3,0-0.5,0.1l4.5-5.7c0,0.1,0.1,0.1,0.1,0.2C106.1,46.7,106.3,46.7,106.4,46.7z"
	/>
<path class="st12" d="M106.1,47.1L106.1,47.1l-0.3,0.4c0,0,0-0.1,0-0.1C105.9,47.2,106,47.1,106.1,47.1z"/>
<path class="st12" d="M106.4,46.7c-0.1,0-0.3,0-0.4,0c-0.1,0-0.1-0.1-0.1-0.2l1.1-1.4c0,0.1,0,0.2,0,0.4c0.2,0.1,0.2-0.2,0.4-0.2
	c0,0,0.1,0,0.1,0.1L106.4,46.7z"/>
<path class="st13" d="M101.3,53c-0.1-0.1-0.2-0.2-0.3-0.1l0.3-0.3C101.4,52.6,101.5,52.8,101.3,53z"/>
<path class="st0" d="M75.5,47.8l-1,0.2l-0.1-0.1l1-0.2C75.4,47.7,75.4,47.8,75.5,47.8z"/>
<path class="st5" d="M75.3,47.7l-1,0.2c0,0,0,0,0,0h0c-1.1-1.2-2.2-2.3-3.1-3.4l0,0c0-0.1,0.1-0.2,0.1-0.3c0.1-0.2,0.2-0.5,0.2-0.7
	c0,0,0,0,0.1,0.1c0,0,0,0,0.1,0.1c0,0,0,0,0.1,0.1c0,0,0.1,0.1,0.1,0.1c0,0,0,0.1,0.1,0.1c0.1,0.1,0.2,0.2,0.3,0.3
	c0.1,0.1,0.2,0.3,0.3,0.4v0h0c0,0,0,0,0,0l0,0c0.1,0.1,0.2,0.2,0.3,0.3c0.1,0.1,0.1,0.1,0.2,0.2c0.3,0.4,0.7,0.7,1,1.1
	c0.1,0.1,0.2,0.3,0.4,0.4c0,0,0.1,0.1,0.1,0.2c0.1,0,0.1,0.1,0.1,0.2C74.9,47.2,75.1,47.5,75.3,47.7z"/>
<path class="st5" d="M75.8,48.2c-0.1-0.1-0.2-0.2-0.3-0.3h0C75.7,48,75.7,48.1,75.8,48.2z"/>
<path class="st14" d="M85.5,30.1c-0.3,0.2-0.5,0.4-0.8,0.5h0c-0.1,0-0.3,0-0.4,0c-0.2,0-0.4,0-0.6,0c0.3-0.2,0.5-0.4,0.8-0.5
	c0,0,0,0,0,0c0.2,0,0.4,0.1,0.6,0.1C85.2,30.1,85.3,30.1,85.5,30.1z"/>
<path class="st0" d="M97.7,22l0.1-0.2c0,0,0,0,0,0c0-0.1-0.1-0.2-0.1-0.4v0c0.1,0,0.1-0.1,0.2-0.1c0,0.2,0.1,0.3,0.1,0.3v0.1l0,0.1
	C97.9,21.9,97.8,21.9,97.7,22z"/>
<path class="st5" d="M97.9,21.8c-0.9,0.4-1.7,0.8-2.6,1.2c0.8-0.5,1.6-1.1,2.4-1.6C97.8,21.6,97.8,21.7,97.9,21.8z"/>
<path class="st5" d="M97.9,21.8L97.7,22c0,0,0,0,0,0c-0.3,0.2-0.7,0.5-1.1,0.7c-0.4,0.3-0.9,0.6-1.3,0.9c-0.1,0-0.1,0.1-0.2,0.1
	c0,0,0,0,0,0c-0.3,0.2-0.6,0.4-0.9,0.6c-0.6,0.4-1.3,0.9-1.9,1.3c0,0,0,0,0,0c-0.1,0.1-0.2,0.1-0.4,0.2c-1.1,0.7-2.1,1.4-3.1,2.1
	c0,0,0,0,0,0c-0.1,0.1-0.2,0.1-0.3,0.2v0c-0.1,0.1-0.3,0.2-0.4,0.3c-0.1,0-0.1,0.1-0.2,0.1c0,0-0.1,0.1-0.1,0.1c0,0,0,0-0.1,0
	c-0.2,0.1-0.3,0.2-0.5,0.3l0,0l-0.3,0.2l-0.2,0.1l-1,0.7l0,0h0c0,0,0,0,0,0h0c0,0,0,0,0,0h0l0,0c-0.1,0-0.2,0-0.3,0
	c-0.2,0-0.4,0-0.6-0.1c0.2-0.1,0.3-0.2,0.5-0.3c0.3-0.2,0.7-0.4,1-0.6c0.8-0.5,1.5-1,2.3-1.5c0.2-0.1,0.4-0.3,0.6-0.4
	c0.2-0.1,0.4-0.3,0.7-0.4c0.5-0.3,1.1-0.7,1.6-1.1c0.5-0.3,1.1-0.7,1.6-1.1c0.8-0.5,1.7-1.1,2.5-1.6c0,0,0,0,0,0
	C96.1,22.6,97,22.2,97.9,21.8C97.9,21.8,97.9,21.8,97.9,21.8z"/>
<path class="st5" d="M72.2,38.5c0,0.1,0,0.2,0,0.3v0h0C72.1,38.8,72.1,38.6,72.2,38.5C72.2,38.5,72.2,38.5,72.2,38.5z"/>
<path class="st5" d="M73.2,38.1L73.2,38.1l-0.6,0.4c0-0.2,0.1-0.5,0.1-0.7c0.1-0.1,0.2-0.1,0.3-0.2v0c0,0.1,0.1,0.1,0.1,0.2
	C73.1,38,73.2,38,73.2,38.1z"/>
<path class="st5" d="M73.3,37.4c0.1-0.1,0.2-0.1,0.3-0.2c0,0,0,0,0,0C73.5,37.3,73.4,37.4,73.3,37.4z"/>
<path class="st15" d="M138.8,37.1c0.3-0.3,0.4-1,0.7-1.4c-0.1-0.2-0.2-0.3,0-0.7c-0.3-0.3-0.2-0.9-0.8-0.8c-0.1,0-0.1-0.2-0.2-0.3
	c-0.2,0-0.2,0.2-0.4,0.3c-0.1,0-0.1-0.2-0.2-0.2c-0.4,0.4-0.9,0.6-1.1,1.2c-0.2,0.1-0.3,0.3-0.5,0.3c0.1-0.5-0.3-0.7-0.4-1
	c-0.4,0.2-0.5,0-0.6-0.2c-0.3,0.2-0.8,0.5-1.2,0.5c-0.1,0.4-0.3,0.6-0.5,0.8c0,0.5-0.4,0.6-0.6,1c0.1,0,0.1,0.1,0.2,0.1
	c0,0.2-0.2,0.1-0.2,0.3c0,0.2,0.2,0.1,0.1,0.3c0,0-0.1,0.1-0.1,0.2c-0.5-0.4-1.2,0.1-1.5,0.8c-0.1-0.1-0.2-0.2-0.3-0.3
	c-0.1,0-0.1,0.2-0.2,0.3c-0.2,0-0.3,0-0.4-0.1c0.1-0.4,0.1-0.6-0.1-0.7c-0.2,0.1-0.3,0.6-0.5,0.7c-0.3,0-0.2-0.5-0.6-0.5
	c-0.1,0.3-0.2,0.6-0.4,0.7c-0.3-0.1-0.2-0.9-0.7-0.6c-0.2-0.2,0-0.7-0.2-0.8c0.1-0.1,0.3-0.1,0.4-0.2c0.1-0.2,0.1-0.4,0-0.4
	c-0.1,0-0.1,0.2-0.2,0.2c-0.2,0.1-0.2-0.1-0.2-0.2c0.1-0.2,0.4-0.5,0.3-0.7c-0.3,0.1-0.4,0.5-0.6,0.8c-0.2-0.2-0.5-0.4-0.9-0.4
	c0-0.3,0.1-0.7,0.1-0.9c-0.3,0.5-0.2,1.3-0.9,1.3c-0.1,0,0-0.3,0-0.5c-0.1,0.1-0.2,0.2-0.2,0.4c-0.7,0.2-0.5-0.9-1.2-0.6
	c-0.1,0-0.1-0.2,0-0.4c-0.3,0.1-0.3,0.6-0.7,0.6c-0.1,0,0-0.3-0.1-0.3c-0.2,0-0.2,0.2-0.3,0.3c-0.2,0-0.1-0.2-0.1-0.4
	c-0.3,0.1-0.6,0.1-0.8-0.1c-0.2,0.2-0.5,0.3-0.5,0c-0.1,0.1-0.2,0.3-0.2,0.5c-0.2,0-0.4,0.1-0.7,0.3c0,0.2-0.1,0.3-0.1,0.5
	c-0.2,0.1-0.4,0.3-0.5,0.5c-0.2,0-0.2-0.2-0.4,0.1c-0.2,0,0-0.4-0.1-0.5c-0.2,0.1-0.4,0.2-0.6,0.3c-0.1,0.2,0,0.2-0.1,0.4
	c-0.4,0.1-0.2-0.2-0.2-0.3c-0.2-0.1-0.4,0.1-0.6,0.3c-0.1,0.2,0.1,0.1,0.1,0.2c-0.1,0.1-0.3-0.1-0.5,0.2c-0.1,0.2,0,0.3,0,0.4
	c-0.1,0.3-0.3,0.3-0.4,0.4c-0.1,0.2-0.2,0.4-0.2,0.6c-0.2,0.4-0.7,0.1-0.8,0.6c0.1,0.1,0.4-0.1,0.4,0.1c-0.1,0.3-0.3,0.5-0.4,1
	c0.3,0.1,0.1,0.7-0.2,1c0.5,0,0.3,0.6,0.1,0.9c0.2,0,0.2-0.2,0.3-0.2c0.2,0.1,0.1,0.4,0.1,0.7c0.1,0,0.2-0.1,0.4-0.1
	c0.1,0,0.1,0.2,0.1,0.3c-0.1,0.2-0.4-0.1-0.4,0.4c0.1,0,0.2,0,0.2,0c0.2,0.1,0,0.5-0.1,0.9c-0.1,0.6,0.2,0.9,0.1,1.4
	c0,0.3-0.4,0.3-0.3,0.6c0.1,0.1,0.3-0.2,0.4-0.2c0.5,0.3,1.1,0.5,1.8,0.5c0.1,0.2,0,0.4,0,0.7c-0.4,0.3-0.9,0.7-1,1.1
	c0.2-0.1,0.4-0.3,0.8-0.3c0.1-0.2,0.2-0.5,0.4-0.5c-0.1,1.1-0.6,2.9,0.7,2.4c0.2,0,0.2,0.2,0.2,0.3c0.2-0.3,0.5-0.3,0.7-0.6
	c0.1-0.2,0.1-0.4,0.4-0.4c0.4,0,0.1,0.9,0.2,1.4c0,0-0.1,0.1-0.1,0.2c-0.6-0.2-1,1.4-0.3,1c0.1,0,0.1,0.2,0.1,0.4c0,0,0.1,0,0.1,0
	c0.3-0.9,0.5-2.3,0.4-3c0.3-0.4,0.7-0.5,0.9-1c0.1,0,0.1,0.1,0.2,0.1c-0.2,0.8,0.1,1.1,0.1,1.8c0,0.2-0.2,0.1-0.3,0.2
	c0,0.2,0,0.3,0.1,0.3c0.1-0.2,0.2-0.4,0.4-0.6c0-0.7,0.1-1.4-0.2-1.7c0.1-0.3,0.2-0.5,0.4-0.5c0.1-0.2,0.1-0.6,0.4-0.6
	c0.1,0.2-0.2,1,0.2,0.9c0.1-0.1,0.2-0.3,0.4-0.5c0.3-0.1,0.3,0.5,0.7,0.3c0.1-0.2-0.1-0.1-0.1-0.2c0.3-0.9-0.6-0.6-0.6-1.3
	c0.2-0.2,0.3,0,0.4,0c0,0.1-0.2,0.4,0.1,0.4c0.1-0.1,0.1-0.4,0.1-0.4c0.1-0.1,0.2-0.1,0.3-0.2c0.1,0.1-0.1,0.3,0,0.4
	c0.3,0,0.4-0.1,0.5,0c0,0.2-0.2,0.3-0.2,0.5c0.6-0.2,0.6,0.8,1.1,0.9c0.5-0.3,0.6,0.1,0.8,0.3c0.1-0.1,0.2-0.3,0.4-0.4
	c0.1,0.1,0.3,0,0.4,0c0.1,0.1-0.1,0.5,0,0.6c0.3-0.1,0.4-0.4,0.6-0.2c0.2-0.3,0-0.4-0.1-0.5c0.1-0.2,0.3-0.3,0.5-0.4
	c0.2,0.1,0.1,0.6,0.4,0.6c0.2-0.1,0-0.3,0.2-0.4c0.2-0.1,0.2,0.2,0.4,0c0.1-0.3-0.2-0.4,0-0.7c0.2-0.1,0.1,0.3,0.3,0.1
	c0.1-0.2,0-0.3,0.1-0.5c0.1-0.2,0.3-0.2,0.4-0.3c0.1-0.2,0.1-0.2,0.1-0.4c0.1-0.2,0.2-0.2,0.3-0.1c0.1-0.2,0.2-0.4,0.4-0.6
	c0.3,0,0.6,0,0.9-0.1c0.3-0.4,0.6-1.2,0.3-1.5c-0.3,0-0.4-0.2-0.6-0.3c0.1-0.4,0.2-0.7,0.3-1c0-0.2-0.2-0.3-0.1-0.6
	c0-0.2,0.2-0.2,0.3-0.5c0-0.3-0.2-0.2-0.2-0.4c0.2-0.6,0.8-0.7,1-1.2c-0.3,0.2-0.6,0.3-0.9,0.5c-0.2-0.1-0.2-0.2-0.3-0.4
	c0-0.2,0.1-0.4,0.2-0.6c-0.1-0.1-0.3-0.2-0.5-0.3c0.2-0.3,0.4-0.5,0.6-0.7c0.1-0.3,0.1-0.6,0.3-0.7c0.2,0,0,0.4,0.1,0.5
	c0.4-0.1,0.5,0.1,0.4,0.5c0.2,0,0.2-0.3,0.4-0.4c0.2,0,0.2,0.1,0.2,0.2c0.2-0.1,0.5-0.4,0.7-0.2c0.1-0.1,0.2-0.3,0.3-0.5
	c0.1,0,0.3,0,0.4-0.1c-0.1-0.4,0.2-1,0.6-1.1c0,0,0,0,0.1,0c0,0.4-0.4,0.4-0.3,0.7c0.2,0,0.3-0.4,0.5-0.2c0,0.3-0.3,0.3-0.4,0.6
	c0.2,0.1,0.5-0.1,0.7-0.3c0.2,0,0.2,0.2,0.3,0.4c0.1,0,0.1-0.3,0.2-0.3c0.2,0.1,0.4-0.1,0.5-0.2c0.1,0,0,0.2,0.2,0.1
	c0.1-0.2,0.2-0.4,0.3-0.5c0.2-0.1,0.1,0.3,0.3,0.2C138.9,37.3,138.7,37.3,138.8,37.1z M120.9,50c-0.1,0.1-0.3,0.1-0.4,0.1
	C120.5,49.9,121,49.8,120.9,50z M124.1,48.2c-0.3,0-0.3-0.3-0.1-0.7C124.3,47.6,124.3,47.8,124.1,48.2z M129.9,48
	c-0.1,0.1-0.2,0.1-0.2,0c0-0.2,0.1-0.2,0.2-0.2C129.9,48,129.9,48,129.9,48z"/>
<g>
	<path class="st16" d="M88.5,50.7c-0.1,0-0.1,0-0.2,0c0-0.1,0-0.2,0.1-0.2C88.5,50.4,88.5,50.5,88.5,50.7z"/>
	<path class="st16" d="M91.7,51.4c-0.1,0.2,0,0.3-0.2,0.4C91.5,51.6,91.6,51.4,91.7,51.4z"/>
	<path class="st16" d="M106.3,56.6c-0.1,0-0.1,0.1-0.2,0c0-0.1,0-0.2,0-0.3C106.3,56.4,106.3,56.5,106.3,56.6z"/>
	<path class="st16" d="M95.9,52.6c-0.1,0-0.2,0-0.3,0c0.1-0.2,0.2-0.2,0.3-0.3C96,52.4,96,52.5,95.9,52.6z"/>
	<path class="st16" d="M98.3,52c-0.1,0.2-0.2,0.4-0.3,0.7c-0.1,0-0.1,0.1-0.2,0C97.7,52.4,97.9,51.9,98.3,52z"/>
	<path class="st16" d="M103.1,54C102.2,54,103.3,53.1,103.1,54L103.1,54z"/>
	<path class="st16" d="M96.5,51.5c-0.3-0.1-0.8-1-0.4-1.2C96.1,50.8,96.5,51,96.5,51.5z"/>
	<path class="st16" d="M97.8,51.8c0,0.1-0.1,0.2-0.1,0.2c0-0.1,0-0.1,0-0.2C97.7,51.8,97.7,51.8,97.8,51.8z"/>
	<path class="st16" d="M108.3,55c-0.1,0-0.1,0-0.2,0c-0.1-0.1-0.1-0.3,0.1-0.4C108.3,54.7,108.3,54.8,108.3,55z"/>
	<path class="st16" d="M90.5,48c-0.1,0.4-0.5,0.2-0.5-0.1C90.3,47.8,90.4,47.8,90.5,48z"/>
	<path class="st16" d="M109.3,53.1c0,0.4-0.4,0.1-0.5,0c0-0.2,0-0.2,0.1-0.3C109,52.8,109.2,52.9,109.3,53.1z"/>
	<path class="st16" d="M111.2,53.6c0,0.1,0,0.1-0.1,0.2c-0.2,0-0.2,0-0.3-0.2C110.9,53.4,111.1,53.4,111.2,53.6z"/>
	<path class="st16" d="M88.2,45.4c-0.1,0-0.1,0-0.2,0c0.1-0.3,0.1-0.6,0.3-0.6C88.5,45,88.3,45.3,88.2,45.4z"/>
	<path class="st16" d="M83.3,43.2c0,0.1,0,0.2-0.1,0.2c-0.1,0-0.1,0-0.2-0.1c0-0.1,0-0.2,0-0.3C83.2,43.1,83.2,43.1,83.3,43.2z"/>
	<path class="st16" d="M87.5,44.2C87.3,44.9,87,43.8,87.5,44.2L87.5,44.2z"/>
	<path class="st16" d="M107.9,49.2c0,0.2-0.5,0.1-0.4-0.1C107.7,49,107.8,49.2,107.9,49.2z"/>
	<path class="st16" d="M85.3,41c0,0.1-0.1,0.2-0.1,0.3c-0.2,0.2-0.6-0.1-0.4-0.5C85,40.8,85.3,40.9,85.3,41z"/>
	<path class="st16" d="M109.8,48.6c0,0.1,0,0.2-0.1,0.2c-0.3,0.2-0.5-0.3-0.2-0.4C109.6,48.4,109.7,48.5,109.8,48.6z"/>
	<path class="st16" d="M86,40.3c-0.2,0.3-0.8-0.1-0.9-0.3C85.4,40.1,85.8,40.1,86,40.3z"/>
	<path class="st16" d="M87.7,40.8c-0.1,0.1-0.2,0.1-0.4,0c-0.1-0.2,0.1-0.4,0.2-0.3C87.7,40.5,87.8,40.6,87.7,40.8z"/>
	<path class="st16" d="M83.2,38.9c0,0.2-0.1,0.2-0.2,0.2c0-0.1,0-0.2,0.1-0.3C83.1,38.8,83.1,38.9,83.2,38.9z"/>
	<path class="st16" d="M108.6,47.4C108.2,47.5,108.7,47,108.6,47.4L108.6,47.4z"/>
	<path class="st16" d="M108.5,46.3c-0.4,0.4-1,0.3-1.5,0.3c0-0.1-0.1-0.2,0-0.4C107.5,46.4,108,46.3,108.5,46.3z"/>
	<path class="st16" d="M110.4,46.9c-0.1,0.1-0.3,0-0.5-0.1c0-0.1,0-0.1,0.1-0.2C110.2,46.7,110.4,46.7,110.4,46.9z"/>
	<path class="st16" d="M87.9,38.7c-0.1,0-0.2-0.1-0.2-0.1C87.7,38.4,88.1,38.6,87.9,38.7z"/>
	<path class="st16" d="M84.9,36.5c-0.3-0.2-0.2,0.2-0.4,0.1c-0.1-0.1-0.2-0.2-0.2-0.4c0.2,0.1,0.4,0,0.6,0
		C85,36.3,85,36.4,84.9,36.5z"/>
	<path class="st16" d="M116.4,46.9c0,0.4-0.7,0.3-0.5-0.2C116.1,46.8,116.3,46.8,116.4,46.9z"/>
	<path class="st16" d="M88.7,36.6C88.5,37,88.3,37,88,37C88,36.7,88.4,36.6,88.7,36.6z"/>
	<path class="st16" d="M89.2,36.6c-0.1,0.1-0.2,0.2-0.3,0.2c-0.1-0.2,0-0.3-0.1-0.5C88.9,36.4,88.9,36.6,89.2,36.6z"/>
	<path class="st16" d="M84.9,35.1c-0.1,0-0.2-0.1-0.3-0.1C84.7,34.7,85.1,34.8,84.9,35.1z"/>
	<path class="st16" d="M102.8,40.2c-0.1,0.3-0.5,0.4-0.8,0.7c0.1-0.5-0.5-0.7-0.4-1.2C101.7,38.9,103.2,39.2,102.8,40.2z"/>
	<path class="st16" d="M89.6,36.2c-0.1,0.6-0.6,0.3-0.4-0.1C89.4,35.9,89.6,36,89.6,36.2z"/>
	<path class="st16" d="M85.5,34.6c-0.1,0.2-0.5,0-0.5-0.2C85.2,34.2,85.5,34.4,85.5,34.6z"/>
	<path class="st16" d="M90.1,35.7c-0.3,0.7-1.3-0.3-0.6-0.9C90,34.9,90.3,35.3,90.1,35.7z"/>
	<path class="st16" d="M92.4,36.2c0,0.2-0.1,0.2-0.2,0.1C92.2,36.1,92.3,36.1,92.4,36.2z"/>
	<path class="st16" d="M92.2,35.9c-0.2-0.1,0-0.4,0.1-0.3C92.5,35.6,92.4,36,92.2,35.9z"/>
	<path class="st16" d="M101,38.8c-0.2,0-0.2-0.1-0.2-0.3C101,38.4,101.1,38.6,101,38.8z"/>
	<path class="st16" d="M99.3,36.7c-0.3,0.5-0.8,1-1.4,0.9c-0.5-0.1-0.6-0.5-1-0.9c0.2-0.4,0-0.5-0.1-0.8c0.2-0.2,0.3-0.5,0.5-0.8
		c0.4,0,0.7-0.2,1.1-0.2c0.2,0.4,0.9,0.5,1,1C99.2,36.3,99.4,36.5,99.3,36.7z"/>
	<path class="st16" d="M89.6,34.5c-0.1,0-0.1,0-0.2-0.1c0-0.1,0-0.2,0.1-0.2C89.7,34.3,89.7,34.4,89.6,34.5z"/>
	<path class="st16" d="M96.4,36.6c-0.1,0-0.2,0.1-0.3,0c0.2-0.3-0.1-0.8,0.2-1.1C96.3,35.8,96.5,36.1,96.4,36.6z"/>
	<path class="st16" d="M95.5,36c0,0.2-0.3,0.1-0.2-0.1C95.3,35.9,95.4,36,95.5,36z"/>
	<path class="st16" d="M90.9,34.1c0,0-0.1,0-0.1,0c0.1-0.2,0-0.4,0-0.5C90.9,33.7,91.2,33.9,90.9,34.1z"/>
	<path class="st16" d="M94.4,35.2c-0.2,0.1-0.4-0.1-0.3-0.4C94.4,34.7,94.6,35.1,94.4,35.2z"/>
	<path class="st16" d="M87.9,32.5c0,0.1-0.1,0.3-0.1,0.3c-0.2-0.1-0.3-0.2-0.2-0.4C87.7,32.3,87.8,32.4,87.9,32.5z"/>
	<path class="st16" d="M109.1,40.1c-0.6-0.2-0.8-1-0.4-1.4c0,0,0.1,0,0.1,0C109.4,38.8,109.6,39.7,109.1,40.1z"/>
	<path class="st16" d="M95.4,34.6C96.6,34.8,94.8,35.8,95.4,34.6L95.4,34.6z"/>
	<path class="st16" d="M94.3,34.6c-0.1,0-0.3,0-0.3-0.1c0,0,0-0.1,0-0.1C94.2,34.3,94.4,34.4,94.3,34.6z"/>
	<path class="st16" d="M104.4,37.8c-0.1,0-0.2,0.2-0.3,0.1c-0.1-0.2,0.1-0.4,0.3-0.3C104.4,37.7,104.4,37.7,104.4,37.8z"/>
	<path class="st16" d="M116.4,41.7c-0.1,0.3-0.9,0.3-1-0.1C115.8,41.7,116,41.5,116.4,41.7z"/>
	<path class="st16" d="M101.1,36.6c0.2-0.3,0-0.8,0.3-0.9C101.3,36.1,101.7,36.8,101.1,36.6z"/>
	<path class="st16" d="M91.1,32.9c-0.1,0-0.1,0-0.2-0.1c0-0.1,0.1-0.2,0.2-0.1C91.2,32.7,91.2,32.8,91.1,32.9z"/>
	<path class="st16" d="M95.5,33.9c0,0.4-0.5,0.2-0.3-0.1C95.3,33.8,95.4,33.9,95.5,33.9z"/>
	<path class="st16" d="M110.9,39.3c0,0.1-0.1,0.3-0.2,0.2C110.7,39.4,110.7,39.2,110.9,39.3z"/>
	<path class="st16" d="M93.9,33.6c-0.2-0.1-0.2-0.2-0.1-0.4C93.9,33.2,93.9,33.4,93.9,33.6z"/>
	<path class="st16" d="M100,34.5c0,0.3,0,0.9-0.3,0.8C99.7,35.2,99.8,34.5,100,34.5z"/>
	<path class="st16" d="M99.4,34.9c0,0.2-0.2,0.1-0.3,0C99.1,34.7,99.3,34.8,99.4,34.9z"/>
	<path class="st16" d="M97.9,33.9c-0.6-0.2-0.1-0.9,0.3-0.7C98.3,33.5,98.1,33.8,97.9,33.9z"/>
	<path class="st16" d="M95.6,32.7c0-0.1,0-0.4,0.1-0.3C95.8,32.5,95.7,32.7,95.6,32.7z"/>
	<path class="st16" d="M94.2,31.9c-0.1,0-0.1,0-0.2-0.1C94,31.6,94.3,31.7,94.2,31.9z"/>
	<path class="st16" d="M104.8,35.2c-0.5-0.1-0.2-0.8,0.2-0.7C105.1,34.7,104.9,35.1,104.8,35.2z"/>
	<path class="st16" d="M93.6,30.8c-0.1,0.6-0.7,0.1-0.3-0.2C93.4,30.6,93.5,30.7,93.6,30.8z"/>
	<path class="st16" d="M102.4,33.8c0.1,0.1,0.2,0.2,0.1,0.4c-0.4-0.2-0.7-0.5-0.8-0.9c0.2-0.1,0.4,0.2,0.6,0.3
		c0.1-0.2,0.1-0.6,0.3-0.5C102.7,33.3,102.4,33.5,102.4,33.8z"/>
	<path class="st16" d="M105.9,33.5c0,0.4-0.2,0.7-0.5,0.7C105.4,33.9,105.7,33.6,105.9,33.5z"/>
	<path class="st16" d="M96.3,30.6c0,0.3-0.2,0.3-0.4,0.3C95.9,30.7,96.1,30.4,96.3,30.6z"/>
	<path class="st16" d="M95.7,30.3c0-0.2,0.1-0.2,0.2-0.2C96,30.3,95.8,30.5,95.7,30.3z"/>
	<path class="st16" d="M92.7,29c-0.2,0.1-0.4-0.3-0.3-0.5C92.6,28.6,92.7,28.8,92.7,29z"/>
	<path class="st16" d="M110.7,35c-0.1,0.1-0.5,0.1-0.4-0.1c0.1-0.2,0.2-0.1,0.4-0.1C110.7,34.8,110.7,34.9,110.7,35z"/>
	<path class="st16" d="M98.4,30.1c-0.2-0.3-0.3-0.5-0.3-0.9C98.5,29.3,98.5,29.9,98.4,30.1z"/>
	<path class="st16" d="M94.8,28.2c-0.1,0.2-0.2,0.4-0.4,0.5C94.4,28.4,94.6,28,94.8,28.2z"/>
	<path class="st16" d="M97.7,29.6c-0.5,0.2-0.6-1-0.2-1C97.7,28.9,97.8,29.2,97.7,29.6z"/>
	<path class="st16" d="M101.2,30.3c-0.1,0.4-0.5,0.2-0.4-0.1C100.9,30.1,101.1,30.2,101.2,30.3z"/>
	<path class="st16" d="M93.7,27.9c-0.4,0-0.2-0.7,0.1-0.4C93.9,27.6,93.8,27.9,93.7,27.9z"/>
	<path class="st16" d="M100.7,29.7c0.1-0.2,0.2-0.4,0.4-0.4c0,0,0,0.1,0.1,0.1C101.3,29.8,100.7,30.1,100.7,29.7z"/>
	<path class="st16" d="M96.7,26.7c-0.2-0.1-0.5,0-0.5-0.3C96.3,26.4,96.8,26.4,96.7,26.7z"/>
	<path class="st16" d="M113.5,32.1c-0.1-0.1-0.3-0.1-0.3,0.1C113.3,32.3,113.5,32.4,113.5,32.1z"/>
	<path class="st16" d="M106.6,27.5c-0.1,0.4-0.7,0.7-0.7,0.1C106.1,27.5,106.4,27.3,106.6,27.5z"/>
	<path class="st16" d="M113.4,44.4c-0.3-0.4-0.2-1-0.8-1.2c-0.2-0.1-0.1-0.3-0.2-0.4c-0.2-0.1-0.3,0.1-0.4,0.1
		c-0.1-0.1-0.1-0.2-0.2-0.3c-0.4,0.2-1,0.1-1.3,0.6c-0.2,0-0.4,0.1-0.6,0c0.1-0.5-0.3-0.8-0.5-1.2c-0.4,0-0.5-0.3-0.7-0.5
		c-0.4,0.1-0.9,0.1-1.3-0.1c-0.1,0.4-0.4,0.4-0.6,0.5c0,0.5-0.5,0.4-0.7,0.7c0.1,0.1,0.2,0.2,0.2,0.2c0,0.2-0.2,0-0.2,0.2
		c0,0.2,0.2,0.2,0.1,0.4c0,0-0.1,0.1-0.1,0.1c-0.5-0.6-1.4-0.5-1.7,0.1c-0.2-0.2-0.3-0.3-0.3-0.5c-0.1,0-0.1,0.2-0.2,0.2
		c-0.2-0.1-0.4-0.2-0.5-0.3c0.1-0.3,0.1-0.6-0.1-0.7c-0.3,0-0.3,0.4-0.6,0.4c-0.4-0.2-0.3-0.6-0.6-0.8c-0.1,0.3-0.2,0.5-0.5,0.5
		c-0.3-0.3-0.2-1-0.8-1c-0.2-0.3,0-0.7-0.2-0.9c0.1-0.1,0.3,0.1,0.4,0c0.1-0.2,0.1-0.4,0-0.4c-0.2-0.1-0.1,0.2-0.2,0.1
		c-0.2,0-0.2-0.2-0.3-0.3c0.1-0.2,0.5-0.3,0.3-0.6c-0.4-0.1-0.5,0.3-0.7,0.4c-0.3-0.3-0.5-0.7-0.9-0.9c0-0.3,0.1-0.6,0.1-0.9
		c-0.3,0.3-0.3,1.2-1,0.8c-0.1-0.1,0-0.3,0-0.5c-0.1,0-0.2,0.1-0.3,0.3c-0.8-0.2-0.6-1.2-1.3-1.2c-0.1-0.1-0.1-0.2,0-0.4
		c-0.3,0-0.4,0.5-0.8,0.3c-0.1-0.1,0-0.3-0.1-0.4c-0.2-0.2-0.3,0.1-0.4,0.1c-0.2-0.1-0.1-0.2-0.1-0.4c-0.4,0-0.7-0.3-0.9-0.5
		C94.3,36,94,36,94,35.7c-0.1,0-0.2,0.2-0.2,0.4c-0.2-0.1-0.5-0.2-0.7,0c0,0.2-0.1,0.3-0.1,0.4c-0.2,0-0.5,0.1-0.6,0.3
		c-0.2-0.1-0.2-0.2-0.4-0.1c-0.2-0.1,0-0.4,0-0.5c-0.2-0.1-0.4,0-0.6,0c-0.1,0.2,0,0.3-0.1,0.4c-0.4-0.1-0.2-0.3-0.2-0.4
		c-0.2-0.2-0.5-0.1-0.7,0c-0.1,0.1,0.2,0.1,0.1,0.3c-0.1,0.1-0.3-0.3-0.6-0.1c-0.1,0.2,0,0.3,0,0.4c-0.1,0.2-0.3,0.1-0.5,0.1
		c-0.1,0.2-0.2,0.4-0.3,0.5c-0.2,0.3-0.8-0.2-0.9,0.2c0.1,0.1,0.4,0.1,0.5,0.3c-0.2,0.2-0.4,0.4-0.4,0.8c0.4,0.3,0.1,0.8-0.2,0.9
		c0.5,0.2,0.3,0.8,0,1c0.2,0.1,0.2-0.1,0.3,0c0.2,0.3,0.1,0.4,0.1,0.7c0.1,0.1,0.2,0,0.4,0.1c0.1,0.1,0.1,0.2,0.1,0.4
		c-0.1,0.1-0.4-0.3-0.5,0.1c0.1,0,0.2,0.1,0.3,0.1c0.2,0.3,0,0.5-0.1,0.9c-0.1,0.5,0.2,0.9,0.1,1.4c-0.1,0.2-0.4,0.1-0.3,0.5
		c0.1,0.1,0.3,0,0.4,0c0.5,0.6,1.2,1.1,2,1.5c0.1,0.2,0,0.5,0,0.7c-0.4,0.1-1,0.2-1.1,0.6c0.3,0,0.5-0.1,0.9,0.1
		c0.1-0.2,0.2-0.4,0.4-0.3c-0.1,0.9-0.5,2,0,2.5c0,0,0.1,0.1,0.1,0.1c0,0,0,0,0,0c0.1,0.1,0.3,0.2,0.5,0.2c0,0,0,0,0.1,0
		c0,0,0,0,0,0c0.1,0.1,0.1,0.3,0.2,0.4c0.2-0.2,0.6,0,0.8-0.2c0.1-0.1,0.1-0.3,0.5-0.2c0.4,0.2,0.1,1,0.2,1.5c0,0-0.1,0.1-0.1,0.1
		c-0.7-0.6-1.1,0.8-0.3,0.9c0.1,0.1,0.1,0.3,0.1,0.4c0.1,0,0.1,0,0.1,0.1c0.4-0.8,0.6-2.1,0.5-2.9c0.3-0.2,0.7-0.2,1-0.5
		c0.2,0,0.1,0.2,0.2,0.2c-0.2,0.7,0.1,1.2,0,1.8c0,0.2-0.3,0-0.4,0c-0.1,0.2,0,0.3,0.1,0.4c0.1-0.2,0.2-0.3,0.4-0.4
		c0-0.7,0.1-1.3-0.2-1.8c0.1-0.3,0.2-0.4,0.5-0.3c0.1-0.2,0.1-0.5,0.5-0.4c0.1,0.3-0.2,0.9,0.2,1c0.2-0.1,0.3-0.2,0.4-0.3
		c0.4,0.1,0.3,0.7,0.7,0.6c0.1-0.2-0.1-0.2-0.1-0.3c0.4-0.8-0.6-0.9-0.6-1.6c0.2-0.1,0.3,0.2,0.5,0.2c0,0.1-0.2,0.4,0.1,0.4
		c0.1,0,0.2-0.3,0.1-0.4c0.1-0.1,0.2,0,0.3,0c0.1,0.1-0.2,0.2-0.1,0.4c0.3,0.1,0.4,0.1,0.6,0.3c-0.1,0.1-0.2,0.2-0.2,0.4
		c0.7,0.2,0.6,1.1,1.2,1.5c0.5-0.1,0.7,0.4,0.9,0.7c0.1,0,0.3-0.1,0.4-0.2c0.1,0.2,0.4,0.2,0.5,0.3c0.1,0.1-0.2,0.5,0,0.6
		c0.1,0,0.2,0,0.2,0c0,0,0.1,0,0.1,0l0.3-0.3c0,0,0,0,0,0c0,0,0.1-0.1,0.1-0.1l4.5-5.7c0,0,0,0,0-0.1c-0.1-0.1-0.1-0.2-0.2-0.3
		c0-0.3,0.1-0.3,0.2-0.5c0,0-0.1-0.1-0.1-0.1l0,0c-0.1-0.1-0.2-0.2-0.3-0.3c0,0,0,0,0,0c0,0,0,0-0.1-0.1c0,0,0.1-0.1,0.1-0.1
		c0.2-0.2,0.4-0.3,0.6-0.3c0.1-0.2,0.1-0.5,0.3-0.5c0.2,0.1,0,0.4,0.1,0.5c0,0,0,0,0,0c0.1,0,0.1,0.1,0.2,0.1c0,0,0,0,0,0
		c0.1,0.1,0.2,0.2,0.2,0.3c0,0,0,0,0,0c0,0.1,0,0.2,0,0.4c0.2,0.1,0.2-0.2,0.4-0.2c0,0,0.1,0,0.1,0.1c0.1,0.1,0.1,0.2,0.2,0.3
		c0.2,0,0.4-0.1,0.6,0h0c0.1,0,0.2,0.1,0.2,0.2c0.1-0.1,0.2-0.2,0.4-0.3c0.2,0,0.3,0.2,0.5,0.1c-0.1-0.4,0.3-0.9,0.7-0.8
		c0,0,0,0.1,0.1,0.1c0,0.4-0.4,0.2-0.3,0.5c0.2,0.1,0.3-0.3,0.5,0c-0.1,0.3-0.4,0.1-0.4,0.4c0.2,0.2,0.6,0.2,0.8,0.1
		c0.2,0.1,0.3,0.4,0.3,0.6c0.2,0.1,0.1-0.2,0.3-0.2c0.2,0.2,0.4,0.1,0.6,0c0.2,0,0,0.2,0.2,0.2c0.1-0.1,0.2-0.4,0.4-0.3
		c0.2,0,0.1,0.3,0.3,0.3c0.1-0.2-0.1-0.3,0-0.5c0.4-0.1,0.5-0.7,0.8-1C113.3,44.9,113.1,44.7,113.4,44.4z M96.3,49.7
		c-0.3-0.1-0.4-0.5-0.1-0.8C96.5,49.1,96.5,49.3,96.3,49.7z M92.7,49.7C92.7,49.7,92.7,49.7,92.7,49.7c-0.1,0.1-0.2,0.1-0.3,0.1
		c0,0,0,0,0,0c-0.1,0-0.1-0.1-0.1-0.1C92.3,49.5,92.6,49.5,92.7,49.7C92.7,49.7,92.7,49.7,92.7,49.7z M106.4,46.7L106.4,46.7
		l-0.3,0.4c0.3-0.1,0.7-0.1,0.9-0.4C106.8,46.7,106.6,46.7,106.4,46.7z M106.2,50.3c-0.3-0.2-0.5-0.4-0.6-0.6
		c0.1-0.4,0.2-0.6,0.3-0.8c0-0.1,0-0.1,0-0.2v0c-0.1-0.1-0.1-0.3-0.1-0.4c0-0.2,0.2-0.1,0.3-0.3c0-0.2-0.2-0.3-0.2-0.4l-0.1,0.1
		l-3.2,4l-0.1,0.1l-0.3,0.3l-0.3,0.3c0.1,0.2,0.1,0.6,0.4,0.7c0,0,0.1,0,0.1-0.1c0-0.1,0-0.2,0.1-0.3c0,0,0.1,0,0.1,0.1
		c0.1,0.1,0.2,0.2,0.4,0.2c0.1-0.2-0.2-0.5,0-0.7c0.2,0,0.1,0.3,0.3,0.2c0.2-0.1,0-0.3,0.1-0.5c0.1-0.2,0.3,0,0.5-0.1
		c0.1-0.2,0.1-0.2,0.1-0.3c0.1-0.1,0.2-0.1,0.3,0c0.2-0.1,0.3-0.3,0.4-0.4c0.3,0.1,0.7,0.3,1,0.4C106.1,51.4,106.4,50.8,106.2,50.3z
		 M102.3,52.4c0-0.1,0.1-0.1,0.3-0.1c0,0.1,0,0.1,0,0.2C102.5,52.6,102.4,52.5,102.3,52.4z"/>
</g>
<path class="st17" d="M126.7,22c-0.6,0.2-0.4-0.7-0.9-0.7c-0.2,0.3-0.5,0.5-0.6,0.8c-0.7,0.1-1.1-0.3-1.3-0.8c0.1-0.1,0.4-0.1,0.6,0
	c0,0.1-0.1,0.2-0.1,0.3c0.2,0.2,0.8,0.1,0.8-0.2c-0.1,0-0.2-0.1-0.2-0.2c0.2-0.1,0.3-0.2,0.4-0.3c-0.1-0.3,0-0.6-0.1-0.9
	c0.1-0.1,0.5-0.1,0.4-0.3c-0.3,0.1-0.3-0.2-0.6-0.2c-0.4,0.5,0.3,1.5-0.6,1.7c-0.4-0.4,0-0.9,0.2-1.2c-0.2,0-0.6-0.8-0.1-0.7
	c0-0.4-0.3-0.6-0.2-0.9c-0.3,0.1-0.4,0.3-0.7,0.3c0.1,0.2,0,0.4-0.1,0.5c-0.1,0-0.2,0-0.3-0.1c0-0.2,0.2-0.2,0.1-0.5
	c-0.2,0.1-0.2-0.1-0.3,0c-0.1,0.2-0.4,0.3-0.3,0.7c-0.4,0.3-0.7,0.6-0.9,1c-0.1,0-0.2,0-0.3,0c0,0.3,0,0.5-0.3,0.6
	c-0.1-0.2-0.4-0.2-0.5-0.5c0.2-0.3,0-1,0.3-1.2c-0.2-0.2-0.2-0.5-0.3-0.8c0.1,0,0.1-0.1,0.3-0.1c-0.2-0.2-0.4-0.3-0.2-0.6
	c-0.3-0.1-0.5-0.6-0.5-1c-0.2-0.1-0.6,0.2-0.7-0.1c0.1-0.1,0.4-0.1,0.4-0.2c-0.2-0.3,0-0.4-0.1-0.6c-0.3,0.1-0.1,0.5-0.4,0.5
	c-0.1-0.1-0.2-0.2-0.4-0.1c0.1,0.5-0.4,0.6-0.4,1c0.1,0.2,0.6-0.1,0.8,0.1c-0.1,0.2-0.1,0.4-0.4,0.4c-0.5-0.1-1-0.1-1.3-0.5
	c0.1-0.2,0.1-0.5,0.4-0.4c-0.7-0.6-0.2-1.4-0.2-2.1c-0.3,0-0.3-0.4-0.4-0.6c-0.9,0.4-1,1.4-1.6,2c0.2,0.1,0.2-0.1,0.4-0.1
	c0.5,0.1,0.3,0.8,0.5,1.2c-0.4,0.2-0.3,0.6-1,0.6c0,0.3,0.5,0,0.6,0.2c0.3,0.3-0.4,0.6-0.5,0.8c-0.1,0.2,0.1,0.6-0.4,0.5
	c0,0.2,0,0.5-0.1,0.6c-0.2,0-0.5,0-0.7-0.2c0-0.3-0.1-0.4-0.3-0.5c-0.2,0-0.1,0.2-0.4,0.2c0-0.2-0.2-0.3,0-0.4
	c0.2,0.1,0.5,0,0.4-0.3c-0.1-0.1-0.3,0-0.4-0.1c0-0.4-0.2-0.2-0.3-0.5c-0.1-0.5,0.6-0.4,0.6-0.8c-0.2,0.1-0.4-0.1-0.3-0.2
	c0.4,0.3,0.7-0.1,1,0.1c0-0.2,0.1-0.3-0.1-0.4c-0.3,0-0.3,0.2-0.6,0.3c-0.2-0.2,0-0.5-0.2-0.6c-0.2,0.2-0.1,0.6-0.7,0.5
	c-0.1,0.6,0.3,1.6-0.4,1.9c-0.2-0.1-0.3-0.2-0.3-0.5c-0.3,0.1-0.3-0.2-0.7-0.1c0,0.6-1.1,0.3-1.2-0.1c-0.2,0-0.3,0-0.4,0.2
	c0.6,0,0.6,0.8,1.2,0.7c0.1-0.2,0.8-0.5,0.9-0.1c-0.1,0.2-0.2,0.4-0.4,0.5c0,0.2,0.1,0.4,0.1,0.5c-0.2,0.3-0.7-0.1-1,0.3
	c0-0.1-0.1-0.2-0.1-0.4c0.1,0,0.2,0.1,0.3,0c0.1-0.2,0.1-0.3-0.1-0.5c-0.5,0.2-0.9-0.1-1.1-0.6c-0.1-0.1-0.2,0.1-0.3,0.1
	c-0.1-0.4-0.6-0.2-0.8-0.5c0.1-0.1,0-0.2,0.2-0.2c0.1,0,0.1,0.2,0.3,0.1c-0.1-0.3-0.4-0.3-0.7-0.3c0-0.2,0.2-0.2,0.3-0.4
	c-0.1-0.3-0.3-0.6-0.5-0.9c0.1-0.2,0.3-0.3,0.2-0.6c-0.2,0.1-0.2,0.3-0.4,0.4c0.3,0.5-0.2,0.8-0.1,1.3c0.2,0.1,0.3,0.2,0.4,0.4
	c-0.4,0.3-0.2,1-0.4,1.4c0.2,0.3,0.1,0.6-0.3,0.6c0,0.3,0.2,0.3,0.2,0.5c-0.1,0.6-0.7,0.2-1,0.3c-0.5,0.1-0.5,0.8-0.2,1.3
	c0.1,0,0.5-0.2,0.7,0.1c-0.1,0.1-0.1,0.2-0.2,0.2c-0.2,0.1-0.2-0.2-0.4-0.1c0.1,0.4,0,0.7-0.1,1.1c0,0.2,0.3,0.1,0.3,0.4
	c0,0.1-0.1,0.2-0.3,0.3c0.2,0.2,0.2,0.4,0,0.5c0.2,0.1,0.4,0,0.5,0.3c-0.1,0.6-0.4,1.2-0.1,1.9c-0.2,0-0.3,0.1-0.5,0.1
	c-0.3,0.4-0.7,0.7-0.6,1.4c-0.8,0.4-0.2,1.3,0.1,1.9c0.2,0,0.2-0.2,0.3-0.1c-0.1,0.8,0.4,1.7,0.8,2.3c0-0.1,0-0.2,0.1-0.2
	c0.2,0.3-0.1,0.8,0.1,1.2c0.3-0.1,0.2-0.6,0.4-0.8c0.3,0,0.3-0.2,0.5-0.3c0.2,0.1,0.2,0.3,0.4,0.4c0.2-0.1,0.6,0,0.7-0.1
	c0-0.3-0.2-0.2-0.2-0.5c0.3-0.1,0.4-0.3,0.7-0.3c0,0.1,0,0.2,0.1,0.2c0-0.2,0.3-0.4,0.5-0.3c0.1,0.4-0.3,0.5,0,0.9
	c0.3,0,0.3-0.1,0.4-0.2c0,0.3,0.1,0.4,0.2,0.6c-0.1,0.2-0.2,0.1-0.4,0.1c0.1,0.4-0.1,0.7-0.1,1.1c0.1,0.1,0.3,0.2,0.3,0.4
	c0,0.1-0.1,0.1-0.2,0.2c0.1,0.2,0.1,0.3,0.1,0.5c0.4,0,0.6,0.2,0.7,0.5c0.4-0.1,0.2-0.5,0.5-0.7c0.1,0.1,0.1,0.2,0.1,0.3
	c0.2-0.1,0.3-0.3,0.5-0.2c0-0.3,0.2-0.3,0.3-0.5c0-0.3-0.2-0.6,0-0.8c0.5,0.3,0.8-0.2,1.4,0c0.1,0,0-0.3,0.2-0.2
	c0.1,0.2,0.3,0.4,0.3,0.7c0.2-0.3,0.7-0.2,1.1-0.1c0.1,0.2,0,0.3,0.1,0.5c0.4-0.3,1-0.3,1.3,0.1c-0.3,0.2,0,0.5,0,0.9
	c0.2-0.1,0.4-0.2,0.6-0.3c0-0.3-0.2-0.2-0.2-0.5c0.1,0,0.1,0,0.2-0.1c0.4-0.1,0.3,0.5,0.5,0.5c0.1-0.4-0.1-0.9,0.6-0.9
	c0.3,0.2,0,0.6,0.2,0.8c0.3-0.2,0.4-0.1,0.7-0.2c-0.4-0.3-0.5-0.9-0.8-1.3c0.1-0.2,0.3-0.4,0.6-0.5c0.2-0.5,0.3-1,0.8-1.4
	c0.2,0.1,0.3,0.2,0.4,0.3c-0.1,0.1-0.2,0.2-0.1,0.3c0.4,0,0.4-0.2,0.7-0.3c0.3,0.2,0.7,0.4,1.1,0.2c0-0.2-0.1-0.2-0.1-0.4
	c0.1-0.2,0.3-0.1,0.5,0c-0.2,0.2-0.1,0.8,0.3,0.8c0.1-0.3-0.3-0.6-0.2-0.9c0.2,0,0.3,0.2,0.4,0.3c0.7-0.3,0.3,0.3,0.5,0.8
	c-0.2,0-0.2-0.1-0.4,0c-0.1,0.2,0.1,0.5,0.3,0.6c-0.2,0-0.2,0.1-0.2,0.2c0,0.1,0.1,0.3,0.2,0.2c0.1-0.2,0.7-0.6,0.4-0.8
	c0.2,0,0.2,0,0.3-0.1c-0.1-0.3,0-0.5,0.4-0.5c0.3,0.5-0.2,1.1,0.1,1.6c0.1,0,0.1,0,0.2,0c0.2-0.1,0-0.4,0-0.7
	c0.2-0.2,0.5-0.1,0.7-0.3c0-0.2-0.3,0-0.3-0.3c0.1-0.2,0.4-0.3,0.1-0.6c-0.1,0.1,0,0.2-0.1,0.2c-0.4-0.4-0.9-0.8-1.3-1.4
	c0.1-0.1,0.1-0.2,0.2-0.3c0.1,0,0.2,0.1,0.4,0.1c0.1-0.6,0.1-1.3,0.3-1.8c0.1,0.1,0.3,0,0.4,0.2c0,0.2,0.1,0.4,0.1,0.5
	c0.2,0,0.3-0.2,0.4-0.2c-0.1-0.8-1-0.5-1.4-0.9c0.1-0.1,0.4-0.1,0.6-0.1c0.1-0.3,0.2-0.6,0.1-1c-0.5-0.7-1.4-0.3-2-0.8
	c0-0.3,0.5-0.5,0.2-0.8c-0.3,0-0.1,0.3-0.4,0.3c-0.5,0-0.6-0.4-1.1-0.4c-0.2,0.1-0.2,0.3-0.4,0.4c-0.1,0-0.2,0-0.2,0
	c-0.1-0.1-0.2-0.4-0.3-0.4c-0.3,0-0.3,0.1-0.5,0.1c0.1,0.2,0.1,0.4-0.1,0.5c-0.4,0-0.6-0.2-0.8-0.4c0-0.2,0.3-0.3,0.3-0.5
	c0-0.2-0.1-0.4-0.2-0.5c0.1-0.1,0.2-0.2,0.3-0.2c0-0.4-0.3-0.6-0.6-0.6c-0.1-0.3,0.3-0.4,0.4-0.7c-0.1,0-0.1-0.1-0.1-0.2
	c-0.3-0.1-0.8,0.1-1-0.1c-0.2-0.7-1-0.9-0.4-1.4c0.4,0,0.4-0.2,0.8-0.2c0.3,0.3,0.8,0.1,1.1,0.4c0.9-0.3,1,0.3,1.7-0.1
	c0,0.2,0,0.3,0.1,0.4c0.4-0.2,0.7,0.1,0.5,0.4c-0.3-0.1-0.5,0.1-0.7,0.2c0.3,0.6,1.1,0.2,1.6,0c-0.2-0.2-0.3-0.5-0.5-0.7
	c0.2,0,0.3,0.2,0.7,0.1c0.1,0.2,0.3,0.4,0.2,0.5c0.2,0,0.2-0.1,0.4-0.1c0.3,0.3,0.6,0.5,0.7,1.1c0.4,0,0.7,0.1,1-0.1
	c-0.2-0.3-0.1-0.5-0.4-0.7c0-0.2,0.2-0.3,0.2-0.5c-0.1-0.1-0.3-0.1-0.4-0.3c0.4,0.1,0.5,0.5,0.9,0.5C126.5,22.6,126.5,22.3,126.7,22
	z M110.4,20.5c-0.4,0.1-0.3-0.5,0-0.5C110.5,20.1,110.6,20.4,110.4,20.5z M118.1,22.9c0-0.2,0.1-0.2,0.2-0.3
	C118.4,22.8,118.2,23.1,118.1,22.9z M124.2,27.8c0.7-0.2,1.5,0.3,1.1,1c-0.2,0-0.3-0.1-0.5,0c-0.2,0.2,0,0.6-0.4,0.6
	c-0.1-0.6-0.2-1-0.6-1.1C123.7,28.1,124,28,124.2,27.8z M123.4,28.1c0.2,0,0.2,0.2,0.2,0.3c-0.1,0,0,0.2-0.2,0.1
	C123.3,28.4,123.4,28.2,123.4,28.1z M123.3,30.9c0.1,0.3,0,0.4-0.1,0.5C122.9,31.3,122.8,30.8,123.3,30.9z M122.5,31
	c0.1,0.1,0.3,0.2,0.3,0.4c-0.1,0.2-0.5,0.2-0.6,0C122.2,31.3,122.2,31.1,122.5,31z M120.7,27.4c0.1,0,0.3,0,0.3,0
	c0,0.2-0.2,0.4-0.4,0.3C120.6,27.6,120.7,27.5,120.7,27.4z M118.6,21.3c0-0.1,0-0.2,0-0.2c0.1,0,0.2,0,0.2,0
	C118.9,21.2,118.7,21.2,118.6,21.3z M119.8,19c-0.4,0-0.1-0.3-0.2-0.6c0.2,0,0.2-0.1,0.4-0.1C120.1,18.5,119.8,18.8,119.8,19z"/>
<polygon class="st11" points="96.9,57.8 96.7,58.2 96.7,58.2 "/>
<path class="st18" d="M71.8,39.1c-0.1,0.1-0.2,0.1-0.3,0.2v0C71.6,39.2,71.7,39.2,71.8,39.1z"/>
<path class="st18" d="M71.8,39.1c0.1-0.1,0.2-0.1,0.3-0.2v0C72,38.9,71.9,39,71.8,39.1z"/>
<path class="st18" d="M72.2,38.5c0,0.1,0,0.2,0,0.3v0h0v0C72.1,38.7,72.1,38.6,72.2,38.5z"/>
<path class="st19" d="M69.3,40.7"/>
<path class="st19" d="M85.5,30.1"/>
<path class="st19" d="M72.1,38.9"/>
<path class="st19" d="M71.8,39.1"/>
<g>
	<path class="st0" d="M120,8.6c0.3,0,0.7,0.1,1,0.2l0.1,0c0.1,0,0.2,0.1,0.3,0.1c0.1,0,0.1,0,0.2,0.1c0.1,0,0.1,0.1,0.2,0.1
		c0.2,0.1,0.5,0.2,0.7,0.4c0.1,0.1,0.2,0.2,0.4,0.2c0.1,0.1,0.3,0.2,0.4,0.3l0.1,0.1l0.1,0.1c0,0,0.1,0.1,0.1,0.1
		c0,0,0.1,0.1,0.1,0.1c0,0,0.1,0.1,0.1,0.1c0.3,0.3,0.6,0.5,1,0.9l0,0l0,0l0.2-0.2l-0.1,0.2c0.3,0.4,0.7,0.7,1,1.1
		c0.8,0.9,1.6,1.8,2.4,2.8c0.4,0.5,0.8,0.9,1.2,1.4l0.1,0.2c0.1,0.1,0.2,0.2,0.3,0.3c1.3,1.4,2.3,2.5,3.2,3.2
		c0.2,0.1,0.3,0.3,0.5,0.4c0.3,0.2,0.6,0.5,0.9,0.6l0.1,0h0c0,0,0,0,0,0l0.1,0l0,0l0.1,0c0.1,0,0.1,0.1,0.2,0.1
		c0.2,0.1,0.3,0.2,0.5,0.2c0.2,0.1,0.5,0.2,0.9,0.4c0.2,0.1,0.3,0.1,0.5,0.2c0.1,0,0.3,0.1,0.4,0.1l0.1,0c0.5,0.2,1,0.3,1.8,0.5
		l0.3,0.1l0.3,0.1c0.3,0.1,0.5,0.1,0.8,0.2l0.4,0.1c0.2,0,0.3,0.1,0.5,0.1c0.1,0,0.2,0,0.2,0.1l0.1,0c0.2,0.1,0.5,0.1,0.8,0.2l0,0
		c0.4,0.1,0.8,0.2,1.2,0.2l0.4,0.1l0.1,0h0c0,0,0.1,0,0.1,0c0.4,0.1,0.8,0.2,1.2,0.2c0.6,0.1,1.2,0.2,1.8,0.3c1,0.2,2,0.4,3,0.5
		l0.1,0l1.6,0.2c0.8,0.1,1.5,0.2,2.2,0.3l0.1,0c0,0,0.1,0,0.1,0c0.2,0,0.5,0.1,0.7,0.1c0.2,0,0.5,0.1,0.7,0.1l1,0.1
		c0.6,0.1,1.1,0.1,1.6,0.2c0.1,0,0.3,0,0.4,0.1c0.2,0,0.4,0.1,0.6,0.1c0.3,0,0.5,0.1,0.7,0.1l0.3,0c0.1,0,0.2,0,0.3,0
		c0.3,0,0.6,0.1,0.8,0.1c0.1,0,0.2,0,0.3,0l-1.2,1l-4.5,3.4L115,62.9l-3.6,2.8c-0.9-1-1.9-1.9-2.9-2.7c-0.1-0.1-0.3-0.2-0.4-0.3
		c0,0-0.1-0.1-0.1-0.1l0,0l0,0c-0.2-0.1-0.3-0.2-0.5-0.4c0,0-0.1-0.1-0.1-0.1c-0.4-0.3-0.7-0.5-0.9-0.6c-0.2-0.2-0.5-0.3-0.7-0.4
		l-0.1-0.1h0c-2.2-1.3-4.8-2.4-7.8-3.3l-0.6-0.2l-0.1,0l0,0l0,0l-15.2-4.7c-0.2-0.1-0.3-0.2-0.5-0.4c-0.6-0.4-1.2-0.9-2-1.5
		c-0.2-0.2-0.4-0.4-0.6-0.5l-0.3-0.3L78,49.8c-0.6-0.5-1.2-1.1-1.8-1.8c-0.1-0.1-0.3-0.3-0.4-0.4c-0.1-0.1-0.1-0.1-0.2-0.2
		c-1.2-1.2-2.5-2.6-3.8-4.2v0l-0.1-0.1L71.5,43c0,0-0.1-0.1-0.1-0.1L71.2,43l0.1-0.2c-0.1-0.1-0.2-0.3-0.3-0.4l0-0.2h-0.1l-0.5-0.7
		l-0.3-0.3c0,0-0.1-0.1-0.1-0.1c-0.1-0.2-0.2-0.3-0.3-0.4c0,0,0,0,0.1-0.1l0.1-0.1c0.2-0.1,0.3-0.2,0.5-0.4c0,0,0.1-0.1,0.1-0.1
		l0.1-0.1c0.1-0.1,0.2-0.1,0.3-0.2l0.2-0.1c0.1,0,0.1-0.1,0.2-0.1c0,0,0.1-0.1,0.2-0.1c0.1,0,0.2-0.1,0.2-0.2
		c0.1-0.1,0.2-0.1,0.3-0.2l0.3-0.2l0.1-0.1c0,0,0,0,0,0l0.1-0.1c0.1,0,0.1-0.1,0.2-0.1c2.8-1.8,7.2-4.7,12.2-8l0,0l0,0l0,0
		c0.2-0.2,0.5-0.3,0.7-0.5l0,0l0,0l0,0l0.7-0.4c3.4-2.3,7.1-4.7,10.7-7c0.3-0.2,0.5-0.3,0.8-0.5l0.1-0.1v0c0,0,0.1,0,0.1-0.1
		l0.1-0.1c0,0,0.1,0,0.1-0.1l-0.1-0.2l0.2,0.2c0,0,0.1-0.1,0.1-0.1c0.1,0,0.1-0.1,0.1-0.1c0,0,0.1,0,0.1-0.1
		c7.8-5.1,17.5-11.4,19.8-12.7c0.1-0.1,0.2-0.1,0.3-0.2l0.1,0l0,0c0.1,0,0.2-0.1,0.3-0.1c0.1,0,0.2-0.1,0.3-0.1c0.1,0,0.1,0,0.2,0
		C119.9,8.6,119.9,8.6,120,8.6 M120,8.4c-0.1,0-0.2,0-0.3,0c-0.1,0-0.1,0-0.2,0c-0.1,0-0.3,0-0.4,0.1c-0.1,0-0.3,0.1-0.4,0.1
		c0,0,0,0,0,0c-0.1,0.1-0.3,0.1-0.4,0.2c-2.1,1.2-10.5,6.6-19.8,12.7c0,0,0,0-0.1,0c0,0-0.1,0.1-0.2,0.1c-0.1,0-0.1,0.1-0.2,0.1
		c0,0-0.1,0-0.1,0.1c-0.1,0.1-0.2,0.1-0.3,0.2c0,0,0,0,0,0c-0.3,0.2-0.5,0.3-0.8,0.5c-3.8,2.5-7.7,5.1-11.3,7.5h0c0,0,0,0,0,0
		c0,0,0,0,0,0c-0.3,0.2-0.5,0.4-0.8,0.5c0,0,0,0,0,0c-5,3.3-9.4,6.2-12.2,8c-0.1,0.1-0.2,0.1-0.3,0.2c0,0,0,0,0,0c0,0,0,0-0.1,0v0
		c-0.2,0.1-0.4,0.2-0.6,0.4c-0.1,0.1-0.2,0.1-0.3,0.2c-0.1,0.1-0.2,0.1-0.3,0.2c-0.2,0.1-0.3,0.2-0.5,0.3c-0.1,0-0.1,0.1-0.2,0.1
		c-0.2,0.2-0.4,0.3-0.6,0.4c-0.2,0.1-0.3,0.2-0.4,0.2c0,0,0,0,0,0s0.2,0.2,0.4,0.6c0,0,0.1,0.1,0.1,0.1c0.2,0.3,0.5,0.7,0.9,1.1
		c0,0,0,0,0,0c0.1,0.1,0.3,0.3,0.4,0.4c0,0,0,0,0.1,0.1c0,0,0,0.1,0.1,0.1c0.1,0.1,0.1,0.1,0.2,0.2c0,0,0,0,0,0
		c1,1.2,2.4,2.7,3.9,4.3c0.1,0.1,0.1,0.1,0.2,0.2c0.1,0.1,0.3,0.3,0.4,0.4l0,0c0.6,0.6,1.2,1.2,1.8,1.8c0.2,0.2,0.4,0.4,0.7,0.6
		c0.2,0.2,0.4,0.4,0.6,0.6c0.7,0.5,1.3,1.1,2,1.5c0.2,0.1,0.4,0.3,0.6,0.4h0L97,57.8l0,0l0.1,0l0,0l0.5,0.2c2.6,0.8,5.3,1.9,7.8,3.3
		c0,0,0,0,0,0c0.2,0.1,0.5,0.3,0.7,0.4c0.3,0.2,0.7,0.4,1,0.6c0,0,0,0,0,0c0.2,0.1,0.4,0.2,0.5,0.4c0,0,0.1,0.1,0.1,0.1
		c0.1,0.1,0.3,0.2,0.4,0.3c1.1,0.8,2.1,1.7,3.1,2.8l0,0l3.8-2.9l41.2-31.5l4.5-3.4l1.7-1.3l0,0c0,0-0.3,0-1-0.1
		c-0.2,0-0.5-0.1-0.8-0.1c-0.1,0-0.2,0-0.3,0c-0.3,0-0.7-0.1-1.1-0.1c-0.3,0-0.7-0.1-1-0.1c-0.5-0.1-1-0.1-1.6-0.2
		c-0.3,0-0.6-0.1-1-0.1c-0.2,0-0.5-0.1-0.7-0.1c-0.2,0-0.5-0.1-0.7-0.1c-0.1,0-0.1,0-0.2,0c-0.7-0.1-1.5-0.2-2.2-0.3
		c-0.6-0.1-1.2-0.2-1.7-0.3c-1-0.1-2-0.3-2.9-0.5c-0.6-0.1-1.2-0.2-1.8-0.3c-0.4-0.1-0.8-0.1-1.2-0.2c-0.1,0-0.1,0-0.2,0
		c-0.5-0.1-1-0.2-1.5-0.3c0,0,0,0,0,0c-0.3,0-0.5-0.1-0.7-0.2c-0.1,0-0.2-0.1-0.3-0.1c-0.2,0-0.4-0.1-0.5-0.1
		c-0.4-0.1-0.9-0.2-1.3-0.3c-0.2-0.1-0.4-0.1-0.7-0.2c-0.6-0.2-1.2-0.4-1.8-0.5c-0.1,0-0.3-0.1-0.5-0.2c-0.2,0-0.3-0.1-0.5-0.2
		c-0.3-0.1-0.6-0.2-0.9-0.4c-0.2-0.1-0.3-0.1-0.5-0.2c-0.1,0-0.2-0.1-0.2-0.1c0,0,0,0,0,0c0,0,0,0-0.1,0c0,0,0,0-0.1,0c0,0,0,0,0,0
		c-0.3-0.2-0.6-0.4-0.9-0.6c-0.2-0.1-0.3-0.2-0.5-0.4c-1.1-0.9-2.1-2-3.2-3.2c-0.1-0.2-0.3-0.3-0.4-0.5c-1.2-1.4-2.4-2.9-3.6-4.2
		c-0.4-0.4-0.7-0.8-1.1-1.1c0,0,0,0-0.1-0.1c-0.3-0.3-0.7-0.6-1-0.9c0,0-0.1,0-0.1-0.1c-0.1-0.1-0.2-0.1-0.3-0.2
		c-0.1-0.1-0.2-0.1-0.3-0.2c-0.1-0.1-0.3-0.2-0.4-0.3c-0.1-0.1-0.2-0.2-0.4-0.2c-0.2-0.2-0.5-0.3-0.7-0.4c-0.1,0-0.2-0.1-0.4-0.2
		c-0.1,0-0.2-0.1-0.4-0.1C120.8,8.4,120.4,8.4,120,8.4L120,8.4z"/>
</g>
<path class="st11" d="M107,45.2L107,45.2l-1.1,1.4l-4.5,5.7l-0.1,0.1l-0.3,0.3L97.7,57l-0.3,0.3l-0.4,0.5L97,58l-0.2,0.2
	c0,0,0,0-0.1,0c0,0,0,0-0.1,0l0.3-0.3l-0.3,0.3v0c0,0,0,0,0.1,0c0,0,0.1,0,0.1,0l-2.5,3.2L94,61.8l-1.9,2.5l-0.4,0.5l-1.9,2.4l0,0
	l-0.4,0.5l-0.2,0.3v0l-2.1,2.7L86.8,71l-2.5,3.2L84,74.6l-5.6,7.1l-5.5-4.6l-0.3-0.3l-0.1,0l-2.1-1.7l-0.3-0.2l-4.6-3.8l-2.4-2
	l1.8-0.5L70,62L59,65.6l-4.7-3.9l27.3-8.5h0c0.2,0.2,0.5,0.3,0.7,0.5c-0.2-0.2-0.5-0.3-0.7-0.5c0,0,0,0,0,0L91.7,50l0.7-0.2l0.3-0.1
	l13-4.1L107,45.2L107,45.2z"/>
<polygon class="st20" points="76.8,60 71.7,66.5 52.3,72.1 59,65.7 "/>
<path class="st2" d="M60.4,67.2c0.2,0,0.6-0.2,0.8-0.3c0.4,0,0.7-0.5,1.1-0.6c0.2-0.1,0.5,0,0.7-0.1c0.4-0.1,0.7-0.4,1-0.4
	c0.2,0,0.3,0,0.5,0c0.5,0,0.9-0.3,1.4-0.3c0.1,0,0.2,0,0.3,0c0.1,0,0.2-0.1,0.3-0.1c0.2,0,0.3,0,0.5,0c0.3,0,0.5-0.3,0.8-0.4
	c0.1,0,0.2,0,0.4,0c0.2,0,0.3-0.2,0.5-0.3c0.2-0.1,0.5-0.2,0.6-0.2c0.1,0,0.3,0,0.3,0.2c0,0.2-0.3,0.2-0.6,0.4
	c-0.2,0.1-0.4,0.3-0.7,0.3c-0.1,0-0.3,0-0.4,0c-0.3,0.1-0.5,0.4-0.8,0.4c-0.2,0-0.4,0-0.6,0c-0.3,0-0.8,0-1.1,0.1
	c-0.3,0-0.6,0.2-0.8,0.2c-0.2,0-0.3,0-0.5,0c-0.3,0-0.6,0.3-0.9,0.4c-0.3,0.1-0.5,0.1-0.8,0.1c-0.4,0.1-0.7,0.5-1.1,0.6
	C61.2,67.4,60.6,67.1,60.4,67.2L60.4,67.2z"/>
</svg>
