<?xml version="1.0" encoding="utf-8"?>
<!-- Generator: Adobe Illustrator 21.0.0, SVG Export Plug-In . SVG Version: 6.00 Build 0)  -->
<svg version="1.1" id="Calque_1" xmlns="http://www.w3.org/2000/svg" xmlns:xlink="http://www.w3.org/1999/xlink" x="0px" y="0px"
	 viewBox="0 0 512 512" style="enable-background:new 0 0 512 512;" xml:space="preserve">
<style type="text/css">
	.st0{fill:#444341;}
</style>
<g>
	<path class="st0" d="M252.1,40c2.1,0,4.1,0.8,5.7,2.3l211.9,211.9c3.1,3.1,3.1,8.2,0,11.3L265.5,469.7c-1.9,1.9-4.1,2.3-5.7,2.3
		s-3.7-0.4-5.7-2.3L42.3,257.8c-1.5-1.5-2.3-3.5-2.3-5.7V48c0-4.4,3.6-8,8-8H252.1 M176,244c35.8,0,65-29.2,65-65s-29.2-65-65-65
		s-65,29.2-65,65S140.2,244,176,244 M252.1,0H48C21.5,0,0,21.5,0,48v204.1c0,12.7,5.1,24.9,14.1,33.9l211.9,211.9
		c9.4,9.4,21.7,14.1,33.9,14.1c12.3,0,24.6-4.7,33.9-14.1l204.1-204.1c18.7-18.7,18.7-49.1,0-67.9L286.1,14.1
		C277.1,5.1,264.8,0,252.1,0L252.1,0z M176,204c-13.8,0-25-11.2-25-25c0-13.8,11.2-25,25-25c13.8,0,25,11.2,25,25
		C201,192.8,189.8,204,176,204L176,204z"/>
</g>
</svg>
